<svg width="109" height="86" viewBox="0 0 109 86" fill="none" xmlns="http://www.w3.org/2000/svg">
<path fill-rule="evenodd" clip-rule="evenodd" d="M1.14134 39.3474C2.88567 31.2548 8.42273 24.9698 13.7796 18.6218C19.5137 11.8267 24.6808 3.8541 33.2477 1.3005C42.2353 -1.37849 52.2673 0.241772 60.518 4.69018C68.5104 8.99933 72.8966 17.2612 77.3862 25.098C81.9494 33.0632 88.6364 41.3474 86.6359 50.2795C84.6572 59.1141 74.9077 63.4463 67.5852 68.8579C61.5747 73.3 55.3269 76.9481 48.0581 78.7902C40.3184 80.7517 32.3109 82.1201 24.6895 79.7289C16.3206 77.1032 8.19332 72.4335 3.80335 64.9053C-0.632519 57.2985 -0.708578 47.9299 1.14134 39.3474Z" fill="#FFE4B0"/>
<g clip-path="url(#clip0_404_1000)">
<path d="M87.5759 12.1261C85.4939 14.2104 83.5865 16.4694 81.891 18.8782L81.3549 18.7035C78.2632 17.6925 75.0592 17.0685 71.8302 16.8563C70.8578 16.7814 67.23 16.7814 66.0456 16.8563C62.4676 17.0935 59.7249 17.6301 56.6082 18.716C56.4835 18.7659 56.3713 18.8033 56.2591 18.8408C54.5013 16.4445 52.544 14.1979 50.3872 12.1386C60.7347 6.8343 72.8401 6.19778 83.6738 10.3788C84.8332 10.8156 85.9677 11.3274 87.0772 11.8765L87.5759 12.1261Z" fill="#F00500"/>
<path d="M106.875 59.4656C105.304 63.9462 102.948 68.1023 99.8932 71.7217C98.2351 73.6687 96.4025 75.4534 94.4327 77.0759C89.82 80.7952 84.4343 83.4536 78.687 84.8514C72.3289 86.3866 65.6965 86.3866 59.3384 84.8514C53.5787 83.4536 48.2055 80.7952 43.5928 77.0759C41.623 75.4534 39.7904 73.6687 38.1323 71.7217C29.3431 61.3252 26.6752 47.0473 31.1508 34.1796C31.9985 31.7958 33.0582 29.4993 34.3299 27.3152C34.9158 26.3167 35.6389 25.1935 35.988 24.7317C37.1848 29.8862 38.6559 34.4168 39.2044 36.0517C39.167 36.1391 39.1171 36.2389 39.0673 36.3263C36.1625 42.2172 34.5917 47.896 34.2177 53.9366C34.2177 54.0115 34.2052 54.0989 34.2052 54.1738C34.1055 55.9835 34.1553 56.8446 34.4545 57.9804C35.3895 61.5374 38.2694 65.4564 42.7824 69.3004C50.1753 75.5907 60.1986 80.1337 67.791 80.6579C75.7074 81.1946 87.3889 76.5642 95.1682 69.7997C96.39 68.7138 97.537 67.5656 98.6091 66.3425C99.3821 65.4439 100.529 63.8963 100.442 63.8963C100.417 63.8963 100.442 63.8713 100.492 63.8463C100.529 63.8214 100.566 63.7839 100.541 63.759C100.529 63.7465 100.554 63.7091 100.591 63.6966C100.629 63.6841 100.654 63.6591 100.641 63.6342C100.629 63.6092 100.641 63.5842 100.691 63.5718C100.728 63.5593 100.741 63.5218 100.728 63.4969C100.716 63.4719 100.728 63.447 100.753 63.447C100.778 63.447 100.803 63.4095 100.803 63.3846C100.803 63.3596 100.828 63.3222 100.853 63.3222C100.878 63.3222 100.903 63.2972 100.903 63.2722C100.94 63.1724 101.003 63.0725 101.065 62.9852C101.252 62.6981 102 61.3627 102.1 61.138C102.81 59.528 103.259 58.0927 103.471 56.6574C103.571 55.971 103.633 54.7104 103.583 54.4109C103.571 54.361 103.571 54.2736 103.558 54.1363C103.534 53.8867 103.521 53.5123 103.496 53.1379C103.471 52.5762 103.421 51.7899 103.384 51.403C102.848 45.7368 101.402 41.1064 98.659 36.2015C98.5468 36.0143 98.447 35.8271 98.3847 35.6773C98.3598 35.6399 98.3473 35.6024 98.3348 35.5775C98.7213 34.4168 100.305 29.5617 101.564 24.0078L101.589 24.0328L101.776 24.2824C102.1 24.7192 102.96 26.0172 103.347 26.6413C105.104 29.5118 106.476 32.5946 107.448 35.8146C109.705 43.5651 109.518 51.8274 106.875 59.4656Z" fill="#F00500"/>
<path d="M90.6926 44.5511C90.6552 44.7508 90.0693 45.3499 89.4833 45.7867C87.7629 47.0473 84.6836 48.2205 81.5544 48.7821C79.7716 49.1066 77.9888 49.1565 77.4528 48.8944C77.1037 48.7197 77.0538 48.5824 77.1785 48.1331C77.4403 47.197 78.2881 46.1736 79.6095 45.2126C80.2828 44.7259 83.013 43.0659 84.2846 42.367C86.3791 41.2188 88.0746 40.5323 89.2215 40.3701C89.5831 40.3201 90.0194 40.3077 90.1566 40.3701C90.381 40.4574 90.6303 41.1189 90.73 41.9177C90.7799 42.342 90.755 44.2141 90.6926 44.5511Z" fill="black"/>
<path d="M61.3207 48.6822C61.2459 48.832 60.8719 48.9942 60.448 49.0566C60.0241 49.119 58.7276 49.0816 57.992 48.9942C55.349 48.6448 52.544 47.8335 50.4994 46.8351C49.3525 46.2734 48.5297 45.7118 47.9188 45.1002L47.5697 44.7383L47.5323 44.264C47.47 43.4403 47.4824 42.1423 47.5822 41.6805C47.6445 41.2936 47.7816 40.9192 47.9686 40.5822C48.0684 40.4574 48.0684 40.4574 48.5172 40.4574C49.0657 40.4574 49.527 40.5448 50.275 40.7819C51.8084 41.2562 54.0899 42.4044 56.87 44.0768C59.1639 45.4497 60.0241 46.1237 60.6849 47.0472C61.1337 47.6213 61.4329 48.4326 61.3207 48.6822Z" fill="black"/>
<path d="M78.9738 66.0554C78.9738 66.0929 78.8242 66.6919 78.6372 67.4033C78.4502 68.1147 78.3006 68.6889 78.3006 68.7138C78.1634 68.7263 78.0388 68.7388 77.9016 68.7263H77.5027L76.9541 70.0243C76.6549 70.7357 76.3807 71.3972 76.3433 71.497L76.2685 71.6717L76.0067 71.2474L75.7449 70.8231V67.3659L75.6451 67.3909C75.4332 67.4408 73.9247 67.6405 73.2639 67.7029C70.5337 67.9775 67.791 67.915 65.0732 67.5281C64.6368 67.4657 64.2628 67.4158 64.2504 67.4283C64.2379 67.4408 64.2504 68.2395 64.2753 69.2255L64.3127 70.9978L64.1008 71.3223C63.9886 71.497 63.8764 71.6468 63.8764 71.6593C63.839 71.6967 63.7143 71.497 63.4276 70.9229C63.1159 70.3238 62.8915 69.6873 62.7294 69.0258L62.6421 68.6639L62.2557 68.6888L61.8692 68.7263L61.7694 68.2645C61.7196 68.0149 61.6572 67.628 61.6323 67.4158L61.5949 67.0164L61.2708 66.7294C61.0838 66.5671 60.8968 66.4049 60.8594 66.3799C60.797 66.33 60.7721 66.2426 60.7721 66.1677V66.018L62.3305 66.0305L63.8888 66.0429L63.9387 66.2052L63.9886 66.3674L64.5246 66.3924C64.8239 66.4049 65.7713 66.4298 66.6191 66.4548L68.1774 66.4922L68.5764 65.8682L68.9878 65.2442H69.5114L69.4989 63.9462L69.4865 62.6482L68.8008 62.3486C66.5941 61.3751 65.2976 60.2644 64.8114 58.9164C64.7116 58.6419 64.7116 58.542 64.6867 57.2939C64.6742 56.0583 64.6742 55.946 64.7615 55.6714C64.936 55.0474 65.4223 54.5607 66.0456 54.3984C66.2575 54.336 66.8186 54.336 69.7607 54.336L73.2265 54.3485L73.613 54.5357C74.0743 54.7603 74.2862 54.9226 74.548 55.2721C74.8472 55.6714 74.9345 55.9835 74.9345 56.7448C74.9345 57.8306 74.8597 58.7667 74.7475 59.1411C74.5854 59.6528 74.3361 60.1395 74.0244 60.5764C73.4011 61.3751 72.2666 62.1739 71.2318 62.5358L70.9326 62.6482L70.9451 63.9587L70.9576 65.2691L71.2318 65.2941L71.5061 65.319L71.8801 65.8807L72.2416 66.4423H73.9122C74.8348 66.4423 75.6451 66.4548 75.7199 66.4673C75.8446 66.4922 75.8695 66.4798 75.9942 66.2676L76.1438 66.0429H77.5775C78.6496 65.993 78.9738 66.018 78.9738 66.0554Z" fill="black"/>
<path d="M72.3913 69.6373C72.1544 69.7746 71.9923 69.837 71.9549 69.8121C71.9175 69.7996 71.743 69.6498 71.556 69.5125L71.2194 69.238L70.8703 69.6124C70.1098 70.4361 70.0849 70.4736 69.8605 70.486C69.5114 70.5235 69.4366 70.4611 69.0127 69.8246C68.7883 69.5001 68.6138 69.2255 68.6138 69.2255C68.6138 69.2255 68.4517 69.2005 68.2647 69.188L67.9156 69.1506L67.7536 69.4876L67.5915 69.8246L67.3048 69.7372C67.0804 69.6623 66.856 69.5749 66.644 69.4751L66.27 69.2879V68.5765L69.5862 68.589L72.9024 68.6014L72.9149 68.9384C72.9273 69.3378 72.9398 69.3253 72.3913 69.6373Z" fill="black"/>
<path d="M103.558 54.4109C103.546 54.361 103.546 54.2736 103.534 54.1363C100.541 53.8118 92.0017 53.6121 84.0727 60.1645C84.0727 60.1645 81.517 48.4326 69.5488 48.4326C57.5806 48.4326 53.1424 60.1645 53.1424 60.1645C46.4352 52.9382 37.459 53.4624 34.2177 53.9366C34.2177 54.0115 34.2052 54.0989 34.2052 54.1738C34.1055 55.9835 34.1553 56.8446 34.4545 57.9804C35.3895 61.5374 38.2694 65.4563 42.7824 69.3004C50.1753 75.5907 60.1986 80.1337 67.791 80.6579C75.7074 81.1946 87.3889 76.5642 95.1683 69.7996C96.39 68.7138 97.537 67.5656 98.6091 66.3425C99.3821 65.4439 100.529 63.8963 100.442 63.8963C100.417 63.8963 100.442 63.8713 100.492 63.8463C100.529 63.8214 100.566 63.7839 100.541 63.759C100.529 63.7465 100.554 63.709 100.591 63.6966C100.629 63.6841 100.654 63.6591 100.641 63.6342C100.629 63.6092 100.641 63.5842 100.691 63.5718C100.728 63.5593 100.741 63.5218 100.728 63.4969C100.716 63.4719 100.728 63.4469 100.753 63.4469C100.778 63.4469 100.803 63.4095 100.803 63.3845C100.803 63.3596 100.828 63.3221 100.853 63.3221C100.878 63.3221 100.903 63.2972 100.903 63.2722C100.94 63.1724 101.003 63.0725 101.065 62.9852C101.252 62.6981 102 61.3627 102.1 61.138C102.81 59.528 103.259 58.0927 103.471 56.6574C103.546 55.971 103.608 54.7104 103.558 54.4109ZM72.3913 69.6374C72.1544 69.7747 71.9923 69.8371 71.9549 69.8121C71.9175 69.7996 71.743 69.6499 71.556 69.5126L71.2194 69.238L70.8703 69.6124C70.1098 70.4362 70.0849 70.4736 69.8605 70.4861C69.5114 70.5235 69.4366 70.4611 69.0127 69.8246C68.7883 69.5001 68.6138 69.2255 68.6138 69.2255C68.6138 69.2255 68.4517 69.2006 68.2647 69.1881L67.9156 69.1506L67.7536 69.4876L67.5915 69.8246L67.3048 69.7372C67.0804 69.6624 66.856 69.575 66.644 69.4751L66.27 69.2879V68.5765L69.5862 68.589L72.9024 68.6015L72.9149 68.9385C72.9273 69.3379 72.9398 69.3254 72.3913 69.6374ZM78.6247 67.3909C78.4377 68.1023 78.2881 68.6764 78.2881 68.7013C78.151 68.7138 78.0263 68.7263 77.8892 68.7138H77.4902L76.9541 70.0243C76.6549 70.7357 76.3807 71.3972 76.3433 71.497L76.2685 71.6718L76.0067 71.2474L75.7449 70.8231V67.3659L75.6451 67.3909C75.4332 67.4408 73.9247 67.6405 73.2639 67.7029C70.5337 67.9775 67.791 67.9151 65.0732 67.5281C64.6369 67.4657 64.2628 67.4158 64.2504 67.4283C64.2379 67.4408 64.2504 68.2395 64.2753 69.2255L64.3127 70.9978L64.1008 71.3223C63.9886 71.497 63.8764 71.6468 63.8764 71.6593C63.839 71.6967 63.7143 71.497 63.4276 70.9229C63.1159 70.3238 62.8915 69.6873 62.7294 69.0258L62.6421 68.6639L62.2557 68.6889L61.8692 68.7263L61.7695 68.2645C61.7196 68.0149 61.6573 67.628 61.6323 67.4158L61.5949 67.0164L61.2708 66.7294C61.0838 66.5671 60.8968 66.4049 60.8594 66.3799C60.7971 66.33 60.7721 66.2426 60.7721 66.1677V66.018L62.3305 66.0305L63.8888 66.0429L63.9387 66.2052L63.9886 66.3674L64.5247 66.3924C64.8239 66.4049 65.7713 66.4298 66.6191 66.4548L68.1774 66.4922L68.5764 65.8682L68.9878 65.2442H69.5114L69.4989 63.9462L69.4865 62.6482L68.8008 62.3486C66.5942 61.3751 65.2976 60.2644 64.8114 58.9164C64.7117 58.6419 64.7117 58.542 64.6867 57.2939C64.6743 56.0583 64.6743 55.946 64.7615 55.6714C64.9361 55.0474 65.4223 54.5607 66.0456 54.3984C66.2576 54.336 66.8186 54.336 69.7608 54.336L73.2265 54.3485L73.613 54.5357C74.0743 54.7604 74.2862 54.9226 74.548 55.2721C74.8472 55.6714 74.9345 55.9835 74.9345 56.7448C74.9345 57.8306 74.8597 58.7667 74.7475 59.1411C74.5854 59.6528 74.3361 60.1395 74.0244 60.5764C73.4011 61.3751 72.2666 62.1739 71.2318 62.5359L70.9326 62.6482L70.9451 63.9587L70.9576 65.2691L71.2318 65.2941L71.5061 65.3191L71.8801 65.8807L72.2416 66.4423H73.9122C74.8348 66.4423 75.6451 66.4548 75.7199 66.4673C75.8446 66.4922 75.8695 66.4798 75.9942 66.2676L76.1438 66.0429H77.5775C78.687 66.0429 79.0112 66.0554 79.0112 66.0929C78.9738 66.0804 78.8117 66.6919 78.6247 67.3909Z" fill="white"/>
<path d="M103.459 53.1378C103.434 52.5762 103.384 51.7899 103.347 51.403C102.81 45.7368 101.364 41.1064 98.6216 36.2015C98.5094 36.0143 98.4097 35.8271 98.3473 35.6773C98.3224 35.6398 98.3099 35.6024 98.2975 35.5774C98.6839 34.4167 100.267 29.5617 101.526 24.0078C103.234 16.4694 104.319 7.65803 101.003 5.01212C101.003 5.01212 95.268 4.58777 87.5884 12.1261C85.5064 14.2104 83.599 16.4694 81.9035 18.8782L81.3674 18.7035C78.2757 17.6925 75.0717 17.0685 71.8427 16.8563C70.8703 16.7814 67.2425 16.7814 66.0581 16.8563C62.4801 17.0935 59.7374 17.6301 56.6207 18.716C56.496 18.7659 56.3838 18.8033 56.2716 18.8408C54.5138 16.4445 52.5565 14.1979 50.3997 12.1386C42.4084 4.56281 36.4617 4.99963 36.4617 4.99963C32.9461 7.73292 34.1429 16.9437 35.963 24.7317C37.1599 29.8862 38.631 34.4167 39.1795 36.0517C39.1421 36.1391 39.0922 36.2389 39.0424 36.3263C36.1376 42.2172 34.5668 47.8959 34.1927 53.9366C37.4466 53.4623 46.4103 52.9257 53.1299 60.1645C53.1299 60.1645 57.5682 48.4326 69.5364 48.4326C81.5046 48.4326 84.0603 60.1645 84.0603 60.1645C91.9892 53.6121 100.529 53.8243 103.521 54.1363C103.509 53.8867 103.484 53.5123 103.459 53.1378ZM41.5357 31.3465C41.5357 31.3465 36.8731 19.677 38.0699 13.0123C38.2694 11.889 38.6434 10.903 39.2294 10.1542C39.2294 10.1542 44.5153 10.6784 53.0427 20.1637C53.0427 20.1637 51.422 20.95 49.2528 22.6224C49.2528 22.6224 49.2403 22.6349 49.2278 22.6349C46.8716 24.4446 43.8546 27.3152 41.5357 31.3465ZM61.3207 48.6822C61.2459 48.832 60.8719 48.9942 60.448 49.0566C60.0241 49.119 58.7276 49.0816 57.992 48.9942C55.3491 48.6448 52.544 47.8335 50.4994 46.8351C49.3525 46.2734 48.5297 45.7118 47.9188 45.1002L47.5697 44.7383L47.5323 44.264C47.47 43.4403 47.4825 42.1423 47.5822 41.6805C47.6445 41.2936 47.7817 40.9192 47.9687 40.5822C48.0684 40.4574 48.0684 40.4574 48.5172 40.4574C49.0657 40.4574 49.527 40.5448 50.275 40.7819C51.8085 41.2562 54.0899 42.4044 56.87 44.0768C59.1639 45.4497 60.0241 46.1237 60.6849 47.0472C61.1337 47.6214 61.4329 48.4326 61.3207 48.6822ZM90.6927 44.5511C90.6553 44.7508 90.0693 45.3499 89.4834 45.7867C87.7629 47.0472 84.6836 48.2204 81.5544 48.7821C79.7717 49.1066 77.9889 49.1565 77.4528 48.8944C77.1038 48.7197 77.0539 48.5824 77.1786 48.1331C77.4404 47.197 78.2881 46.1736 79.6096 45.2126C80.2828 44.7258 83.0131 43.0659 84.2847 42.367C86.3791 41.2187 88.0746 40.5323 89.2216 40.37C89.5831 40.3201 90.0195 40.3076 90.1566 40.37C90.381 40.4574 90.6303 41.1189 90.7301 41.9177C90.7799 42.342 90.755 44.2141 90.6927 44.5511ZM88.6232 22.6224L88.5982 22.61C86.5038 20.9375 84.933 20.1512 84.933 20.1512C93.1736 10.6659 98.2725 10.1417 98.2725 10.1417C98.8335 10.903 99.1951 11.8765 99.3946 12.9998C100.554 19.6645 96.0534 31.3465 96.0534 31.3465C94.1709 27.9892 91.6401 25.0187 88.6232 22.6224Z" fill="#FFA409"/>
<path d="M99.407 12.9998C98.4346 12.875 93.8343 12.85 88.6232 22.6224L88.5982 22.61C86.5038 20.9375 84.933 20.1512 84.933 20.1512C93.1736 10.6659 98.2725 10.1417 98.2725 10.1417C98.846 10.903 99.2075 11.8765 99.407 12.9998Z" fill="#FF9300"/>
<path d="M96.0659 31.3465C94.1709 27.9767 91.6526 25.0188 88.6232 22.6224C93.8343 12.85 98.4221 12.875 99.407 12.9998C100.566 19.677 96.0659 31.3465 96.0659 31.3465Z" fill="#FF8300"/>
<path d="M99.594 13.0372C99.5317 13.0247 99.4693 13.0123 99.407 12.9998L99.594 13.0372Z" fill="#FF8300"/>
<path d="M53.0426 20.1512C53.0426 20.1512 51.4219 20.9375 49.2527 22.61C49.2527 22.61 49.2402 22.6224 49.2278 22.6224C43.8296 12.8375 39.0797 12.875 38.0574 12.9998C38.2569 11.8765 38.6309 10.8905 39.2169 10.1417C39.2293 10.1417 44.5153 10.6659 53.0426 20.1512Z" fill="#FF9300"/>
<path d="M49.2402 22.6224C46.8715 24.4446 43.8545 27.3027 41.5357 31.3465C41.5357 31.3465 36.873 19.677 38.0699 12.9998C39.0797 12.875 43.842 12.85 49.2402 22.6224Z" fill="#FF8300"/>
<path d="M38.0699 12.9998C38.0076 13.0123 37.9328 13.0247 37.8704 13.0372L38.0699 12.9998Z" fill="#FF8300"/>
<path d="M83.4494 37.824C83.4494 37.824 79.46 38.0736 79.9587 34.9534C80.4573 31.8332 83.5741 31.4588 84.4467 31.5836C85.3194 31.7084 88.8102 32.9565 88.1868 35.5774C87.5635 38.1984 86.6908 37.6991 86.1921 37.824C85.6934 37.9488 83.4494 37.824 83.4494 37.824Z" fill="white"/>
<path d="M54.0275 37.824C54.0275 37.824 50.0381 38.0736 50.5368 34.9534C51.0355 31.8332 54.1522 31.4588 55.0249 31.5836C55.8975 31.7084 59.3883 32.9565 58.7649 35.5774C58.1416 38.1984 57.2689 37.6991 56.7702 37.824C56.2716 37.9488 54.0275 37.824 54.0275 37.824Z" fill="white"/>
</g>
<defs>
<clipPath id="clip0_404_1000">
<rect width="80" height="81" fill="white" transform="translate(29 5)"/>
</clipPath>
</defs>
</svg>
