<svg width="19" height="20" viewBox="0 0 19 20" fill="none" xmlns="http://www.w3.org/2000/svg">
<path d="M18.3 13.1352C18.3 15.952 14.55 18.25 9.9 18.25C5.25 18.25 1.5 15.952 1.5 13.1352V11.875H18.375V13.1352H18.3Z" fill="#FEDC90"/>
<path fill-rule="evenodd" clip-rule="evenodd" d="M4.68103 3.05893C4.45503 2.03393 5.82924 1.375 6.88393 1.375C7.86328 1.375 8.61663 2.10714 8.61663 3.05893V6.86607C9.21931 6.79286 9.25949 6.71964 9.86216 6.71964C10.4648 6.71964 10.6925 6.79286 11.2199 6.79286L11.5949 3.05893C11.2199 2.10714 12.3482 1.375 13.3276 1.375C14.3823 1.375 15.5073 2.62778 15.2813 3.65278L14.4375 7.37857C16.9236 8.25714 18.375 9.86786 18.375 11.6982C18.375 14.4804 14.6083 16.75 9.9375 16.75C5.26674 16.75 1.5 14.4804 1.5 11.6982C1.5 9.86786 2.85222 8.25714 5.26293 7.37857L4.68103 3.05893Z" fill="#D1884F"/>
<path d="M7.875 11.875C7.875 12.6645 7.40625 13.375 6.9375 13.375C6.46875 13.375 6 12.7434 6 11.875C6 11.0855 6.46875 10.375 6.9375 10.375C7.40625 10.375 7.875 11.0066 7.875 11.875Z" fill="#633001"/>
<path d="M13.875 11.875C13.875 12.6645 13.4063 13.375 12.9375 13.375C12.3906 13.375 12 12.7434 12 11.875C12 11.0855 12.4688 10.375 12.9375 10.375C13.4063 10.375 13.875 11.0066 13.875 11.875Z" fill="#633001"/>
<path fill-rule="evenodd" clip-rule="evenodd" d="M4.04268 3.49581C3.75 2.0236 4.92073 0.625 6.38415 0.625C7.70122 0.625 8.79878 1.72916 8.79878 3.05415V5.99857C9.16463 5.99857 9.45732 5.99857 9.82317 5.99857C10.1159 5.99857 10.4817 5.99857 10.7744 5.99857V3.05415C10.7744 1.72916 11.872 0.625 13.189 0.625C14.6524 0.625 15.8232 2.0236 15.5305 3.49581L14.872 6.95551C17.0671 7.91245 18.75 9.60549 18.75 11.7402V12.9916C18.75 14.7582 17.5793 16.7986 15.9695 17.7556C14.3598 18.7861 12.1646 19.375 9.75 19.375C7.33537 19.375 5.14024 18.7861 3.53049 17.7556C1.92073 16.7986 0.75 14.7582 0.75 12.9916V11.7402C0.75 9.60549 2.43293 7.91245 4.62805 6.95551L4.04268 3.49581ZM14.0671 7.47079L14.7988 3.4222C15.0183 2.39165 14.2134 1.43472 13.189 1.43472C12.2378 1.43472 11.5061 2.17082 11.5061 3.12776V6.8819C11.2866 6.8819 10.9939 6.80829 10.7744 6.80829C10.4817 6.80829 10.1159 6.80829 9.82317 6.80829C9.45732 6.80829 9.16463 6.80829 8.79878 6.8819C8.57927 6.8819 8.28659 6.95551 8.06707 6.95551V3.20137C8.06707 2.24443 7.33537 1.50833 6.38415 1.50833C5.35976 1.50833 4.55488 2.46527 4.77439 3.49581L5.5061 7.61801C3.16463 8.50134 1.55488 10.1208 1.55488 11.961V13.2124C1.55488 16.0096 5.21341 18.2915 9.75 18.2915C14.2866 18.2915 17.9451 16.0096 17.9451 13.2124V11.961C18.0183 9.97355 16.4085 8.35411 14.0671 7.47079Z" fill="#633001"/>
</svg>
