<svg width="36" height="36" viewBox="0 0 36 36" fill="none" xmlns="http://www.w3.org/2000/svg">
<path opacity="0.35" d="M18 28C23.5228 28 28 23.5228 28 18C28 12.4772 23.5228 8 18 8C12.4772 8 8 12.4772 8 18C8 23.5228 12.4772 28 18 28Z" fill="black"/>
<path d="M23 13.625C23 13.15 22.968 12.567 22.75 12C22.75 12 21.324 12.01 19.979 13.284C19.358 13.103 18.694 13 18 13C17.306 13 16.642 13.103 16.021 13.284C14.676 12.01 13.25 12 13.25 12C13.033 12.567 13 13.15 13 13.625C13 14.344 13.128 14.785 13.205 15.003C12.452 15.839 12 16.874 12 18C12 20.186 13.655 21.531 16 22C15.473 22.463 15.15 23.11 15.047 23.836C14.824 23.944 14.5 24 14.125 24C13.824 24 13.239 23.858 12.694 23.009C12.474 22.665 12 22 11.375 22C11.253 22 10.996 21.992 11 22.181C11.002 22.271 11.14 22.272 11.435 22.535C11.682 22.756 11.912 23.118 12 23.5C12.145 24.127 12.726 25.375 14.125 25.375C14.625 25.375 15 25.25 15 25.25V27.541C15.947 27.838 16.955 28 18 28C19.045 28 20.053 27.838 21 27.541V24.25C21 23.351 20.626 22.55 20 22C22.345 21.531 24 20.186 24 18C24 16.894 23.564 15.875 22.834 15.047C22.897 14.852 23 14.4 23 13.625Z" fill="black"/>
</svg>
