<svg width="132" height="130" viewBox="0 0 132 130" fill="none" xmlns="http://www.w3.org/2000/svg">
<path d="M5.94023 129.386C7.2641 128.908 7.176 128.628 8.40701 128.102C9.73088 127.625 9.77493 127.765 11.0988 127.287C12.4227 126.81 12.4667 126.95 13.7906 126.473C15.1145 125.995 15.1585 126.135 16.4824 125.658C17.8062 125.181 17.9431 125.369 19.1742 124.843C20.498 124.366 20.4099 124.086 21.6409 123.559C22.9648 123.082 22.8719 123.033 24.2446 122.464C25.5685 121.987 25.3875 121.658 26.7114 121.181C28.0353 120.703 28.2115 121.264 29.5353 120.786C30.8592 120.309 30.5902 119.7 31.914 119.222C33.2379 118.745 33.37 119.165 34.7427 118.596C36.0666 118.119 35.7975 117.51 37.1214 117.032C38.4453 116.555 38.5334 116.835 39.8573 116.358C41.1811 115.88 41.1371 115.74 42.4609 115.263C43.7848 114.785 44.0539 115.395 45.3777 114.917C46.7016 114.44 46.3885 113.69 47.7124 113.213C49.0362 112.735 48.9922 112.595 50.3161 112.118C51.6399 111.64 51.7768 111.829 53.0079 111.303C54.3317 110.826 54.6008 111.435 55.8318 110.909C57.1557 110.432 57.1556 110.432 58.3867 109.905C59.7105 109.428 59.5343 108.867 60.7654 108.341C62.0892 107.864 62.0011 107.583 63.325 107.106C64.6489 106.629 64.8298 106.958 66.0608 106.432C67.3847 105.954 67.2966 105.674 68.5276 105.148C69.8515 104.67 70.0277 105.231 71.4004 104.662C72.7242 104.185 72.6361 103.904 73.8671 103.378C75.191 102.901 75.2351 103.041 76.6077 102.472C77.9316 101.995 79.09 102.719 79.3531 101.334C79.7091 99.9983 78.009 100.513 76.9971 99.5142C75.9852 98.5155 76.2245 98.2896 75.3054 97.3396C74.2935 96.341 73.9565 96.75 72.9446 95.7514C71.9327 94.7528 72.172 94.5269 71.2529 93.5769C70.241 92.5783 70.6708 92.2179 69.7517 91.268C68.7398 90.2694 68.5933 90.544 67.5814 89.5453C66.5695 88.5467 66.2326 88.9557 65.2206 87.9571C64.2087 86.9585 64.2087 86.9585 63.2896 86.0085C62.2777 85.0099 62.9468 84.4236 62.0277 83.4737C61.0158 82.475 60.8694 82.7496 59.8574 81.751C58.8455 80.7524 58.6991 81.027 57.6871 80.0284C56.6752 79.0298 56.4359 79.2557 55.5168 78.3057C54.5049 77.3071 54.9347 76.9468 53.9228 75.9482C52.9108 74.9496 53.1013 74.8151 52.1822 73.8652C51.1703 72.8666 51.312 72.8237 50.3001 71.8251C49.2881 70.8265 48.7119 71.4614 47.7 70.4628C46.6881 69.4642 47.069 69.1953 46.0571 68.1967C45.0452 67.1981 44.9475 67.3812 43.9356 66.3826C42.9237 65.3839 43.3535 65.0236 42.3415 64.025C41.3296 63.0264 40.851 63.4782 39.932 62.5283C38.92 61.5297 39.5403 61.0349 38.5284 60.0363C37.5164 59.0377 37.0378 59.4896 36.1188 58.5396C35.1068 57.541 35.5366 57.1806 34.5247 56.182C33.5128 55.1834 33.4151 55.3665 32.4032 54.3678C31.3913 53.3692 31.8306 52.5454 30.4627 52.8827C29.0948 53.2199 30.0674 53.8466 29.4769 55.1767C28.9352 56.4153 28.7007 56.4095 28.159 57.648C27.6172 58.8866 27.3827 58.8808 26.841 60.1194C26.2993 61.3579 26.8565 61.6498 26.4076 62.937C25.8659 64.1756 25.6314 64.1698 25.1825 65.457C24.7432 66.2808 24.3718 66.0862 23.7812 67.4162C23.2395 68.6548 23.8895 68.9954 23.3478 70.2339C22.8061 71.4725 22.9918 71.5698 22.4942 72.9485C21.9525 74.187 21.9525 74.187 21.362 75.5171C20.8202 76.7557 20.7274 76.707 20.1369 78.0371C19.5952 79.2756 19.5023 79.227 18.9118 80.5571C18.3701 81.7956 18.6487 81.9416 18.1069 83.1801C17.5652 84.4187 17.2378 84.3642 16.789 85.6514C16.2473 86.89 15.7342 86.7382 15.1925 87.9768C14.6508 89.2153 15.2079 89.5073 14.6662 90.7458C14.1245 91.9844 13.6114 91.8326 13.0697 93.0712C12.528 94.3097 12.6208 94.3584 12.1232 95.7371C11.5815 96.9756 11.3469 96.9699 10.8981 98.2571C10.3564 99.4956 10.5421 99.5929 9.95157 100.923C9.40986 102.162 9.68844 102.308 9.14673 103.546C8.60502 104.785 8.18477 104.682 7.64306 105.92C7.10135 107.159 7.37993 107.305 6.93109 108.592C6.38938 109.83 6.94653 110.122 6.49768 111.409C5.95598 112.648 5.62858 112.594 5.17974 113.881C4.63803 115.119 4.31064 115.065 3.76893 116.303C3.22722 117.542 3.41294 117.639 2.82242 118.969C2.28071 120.208 2.13903 120.251 1.59732 121.489C1.05562 122.728 0.728224 122.673 0.186516 123.912C-0.111128 124.693 0.00671738 125.809 0.134093 126.461C0.305515 127.253 0.901956 127.917 1.4984 128.581C2.05079 129.105 2.78891 129.725 3.62941 129.932C4.32825 130.181 5.18305 129.692 5.94023 129.386Z" fill="#FF8A00"/>
<path d="M79.5436 101.2C78.9674 101.835 77.7899 102.037 76.6173 102.009C75.8208 101.943 74.8434 101.548 73.8172 101.244C73.0255 100.946 72.3362 100.234 71.3588 99.839C70.6159 99.4497 69.3456 99.6039 68.5587 99.0745C67.7229 98.6366 66.8384 98.2903 65.9586 97.7122C65.1717 97.1828 64.4335 96.5618 63.6466 96.0324C62.8597 95.503 62.0239 95.0651 61.2858 94.4442C60.4989 93.9148 60.0001 93.0679 59.262 92.447C58.5239 91.826 57.9762 91.0707 57.2381 90.4497C56.5 89.8288 55.7131 89.2994 55.0238 88.5869C54.2857 87.966 53.738 87.2106 52.9999 86.5897C52.2618 85.9687 51.3773 85.6224 50.688 84.9099C49.9987 84.1974 49.7391 83.1246 49.001 82.5037C48.3117 81.7912 47.7153 81.1274 47.026 80.4149C46.3367 79.7025 45.5986 79.0815 45.0021 78.4177C44.3128 77.7052 43.3354 77.3102 42.739 76.6464C42.0497 75.9339 41.7413 74.9526 41.1449 74.2888C40.5044 73.4848 39.6687 73.0469 39.121 72.2916C38.4806 71.4876 38.1234 70.5978 37.5758 69.8425C37.0282 69.0871 36.3877 68.2831 35.84 67.5278C35.2924 66.7724 34.9353 65.8827 34.4365 65.0358C33.9376 64.1889 33.39 63.4336 32.8912 62.5867C32.3924 61.7398 32.0352 60.8501 31.6293 60.0518C31.1793 59.1134 30.6317 58.3581 30.3674 57.517C30.059 56.5357 29.9852 55.5602 29.9555 54.7248C29.8865 53.5176 29.6758 52.3533 30.296 51.8585C30.8723 51.2236 32.1426 51.0694 33.3152 51.0983C34.1117 51.1643 35.0938 51.3276 36.2129 51.6797C37.0046 51.9774 38.0309 52.2809 38.8666 52.7188C39.6095 53.108 40.1964 54.2352 41.0321 54.6731C41.8679 55.111 42.7524 55.4573 43.5393 55.9868C44.3263 56.5162 44.9227 57.18 45.8025 57.758C46.5894 58.2875 47.8597 58.1333 48.5978 58.7542C49.3848 59.2836 49.8836 60.1305 50.6705 60.6599C51.4086 61.2809 52.2932 61.6272 53.0313 62.2482C53.7694 62.8691 53.9801 64.0334 54.6694 64.7459C55.4075 65.3669 56.4337 65.6703 57.0302 66.3341C57.7683 66.9551 58.5552 67.4845 59.2445 68.197C59.9338 68.9095 60.7696 69.3473 61.4589 70.0598C62.1482 70.7723 62.6958 71.5276 63.3851 72.2401C64.0744 72.9526 64.622 73.7079 65.2185 74.3717C65.9078 75.0842 66.0256 76.1999 66.7149 76.9124C67.4042 77.6248 68.1911 78.1543 68.7388 78.9096C69.3793 79.7136 69.9269 80.4689 70.4745 81.2243C71.115 82.0283 71.3305 82.9609 71.9269 83.6248C72.4745 84.3801 73.496 84.9153 74.0436 85.6706C74.5913 86.426 74.7091 87.5417 75.2567 88.297C75.7555 89.1439 76.6353 89.722 77.0413 90.5202C77.5401 91.3671 78.2294 92.0795 78.6354 92.8778C79.0854 93.8162 79.0175 94.8346 79.2818 95.6757C79.5901 96.657 80.0401 97.5954 80.0698 98.4307C80.2365 99.4549 80.2127 100.613 79.5436 101.2Z" fill="#2B292D"/>
<path d="M60.8155 26.0424C60.181 27.2322 59.8095 27.0376 59.1749 28.2275C58.5404 29.4174 58.9118 29.612 58.1844 30.7533C57.5498 31.9432 57.2712 31.7972 56.5438 32.9384C55.9092 34.1283 55.6413 35.7446 56.2723 37.012C56.9521 38.1879 57.0937 38.145 57.6807 39.2723C58.3604 40.4482 58.6926 40.2709 59.3723 41.4468L60.7319 43.7986C61.2307 44.6455 59.7509 45.8609 58.8663 45.5145C57.6591 44.8821 57.8544 44.5159 56.696 43.7919C55.4888 43.1594 55.44 43.2509 54.2817 42.5269C53.0745 41.8944 52.8792 42.2605 51.672 41.6281C50.4649 40.9956 48.9255 40.5403 47.6457 41.158C46.4587 41.8242 46.7766 42.3421 45.4968 42.9597C44.3098 43.6259 43.9479 42.9679 42.7609 43.6342C41.574 44.3004 41.9359 44.9584 40.7489 45.6247C39.8941 46.1137 39.1215 44.8891 39.5608 44.0654C40.1954 42.8755 39.8239 42.6809 40.4585 41.491C41.0931 40.3011 41.3717 40.447 42.0062 39.2571C42.6408 38.0672 42.6408 38.0672 43.3682 36.926C44.0028 35.7361 43.4695 34.2856 42.8385 33.0182C42.1587 31.8423 42.2076 31.7507 41.6206 30.6235C40.9409 29.4476 41.5564 29.1846 40.9254 27.9171C40.2945 26.6497 39.723 27.0529 39.092 25.7855C38.5932 24.9386 39.9314 23.7661 40.7671 24.2039C41.9743 24.8364 41.7791 25.2026 42.9862 25.835L45.4006 27.1C46.6078 27.7325 46.7054 27.5495 47.9126 28.182C49.1198 28.8145 50.7127 28.9464 51.8997 28.2802C53.0866 27.6139 52.9057 27.2849 54.0926 26.6186C55.2796 25.9524 55.5046 26.4216 56.6916 25.7553C57.8785 25.0891 58.0595 25.4181 59.2464 24.7518C60.2381 24.4517 61.2548 25.2186 60.8155 26.0424Z" fill="#FF8A00"/>
<path d="M101.625 74.9439C100.844 76.4083 100.194 76.0678 99.4614 77.4407C98.7292 78.8137 99.5162 79.3431 98.6423 80.7589C98.1054 81.7658 97.9494 82.5038 98.4922 83.4908L100.028 86.4034C100.796 87.8596 100.654 87.9025 101.422 89.3588C101.784 90.0168 100.827 90.9206 100.177 90.58C98.691 89.8016 98.8374 89.527 97.4933 88.7056C96.0076 87.9272 96.1052 87.7441 94.7123 87.0143C93.6908 86.4791 92.1419 86.4873 91.1455 87.0192C89.6752 87.7712 89.7192 87.9114 88.2489 88.6634C86.7786 89.4154 87.0476 90.0248 85.6702 90.8255C85.0059 91.18 84.1356 90.1385 84.5261 89.4063C85.3071 87.9418 84.8428 87.6985 85.7167 86.2827C86.4977 84.8182 87.1477 85.1588 87.8799 83.7859C88.4169 82.779 88.3526 81.3401 87.8097 80.353C87.0419 78.8968 86.5192 79.2084 85.7514 77.7522C84.9835 76.2959 85.5061 75.9842 84.7383 74.5279C84.3764 73.8699 84.7085 73.6926 85.3586 74.0332C86.8443 74.8116 87.186 74.1709 88.6229 75.0409C90.1087 75.8194 89.8646 76.277 91.2575 77.0068C92.279 77.542 93.5981 77.2963 94.5946 76.7645C96.0649 76.0125 96.2899 76.4817 97.7602 75.7296C99.2305 74.9776 98.8246 74.1794 100.246 73.5189C100.818 73.1157 101.966 74.3032 101.625 74.9439Z" fill="#3040C4"/>
<path d="M118.077 30.2811L117.003 32.2947C116.466 33.3016 116.652 33.3989 116.115 34.4057L115.041 36.4194C114.456 37.5177 114.661 38.9138 115.204 39.9009C115.747 40.8879 115.698 40.9795 116.241 41.9665C116.784 42.9536 117.209 42.8249 117.752 43.812C118.295 44.7991 118.295 44.7991 118.789 45.8777C119.244 46.5844 118.247 47.1162 117.504 46.727C116.483 46.1918 116.434 46.2833 115.413 45.7481C114.391 45.213 114.342 45.3045 113.321 44.7693C112.299 44.2341 112.202 44.4172 111.18 43.882C110.066 43.2981 108.981 43.5496 107.985 44.0815C106.988 44.6133 106.94 44.7049 105.943 45.2367C104.947 45.7686 104.854 45.7199 103.857 46.2518C102.861 46.7836 102.768 46.735 101.772 47.2668C101.058 47.7129 99.9096 46.5255 100.3 45.7932C100.837 44.7864 100.744 44.7377 101.281 43.7309C101.818 42.7241 102.468 43.0646 103.005 42.0578C103.542 41.051 102.985 40.759 103.571 39.6607C104.156 38.5623 104.083 37.5868 103.54 36.5998C102.997 35.6127 103.568 35.2095 103.025 34.2224C102.483 33.2353 102.199 33.3211 101.656 32.334C101.113 31.347 101.021 31.2983 100.478 30.3113C100.023 29.6046 100.834 28.9754 101.577 29.3646C102.598 29.8998 102.891 29.3506 103.864 29.9773C104.885 30.5125 104.885 30.5125 105.858 31.1393C106.879 31.6744 106.635 32.1321 107.657 32.6673C108.771 33.2511 110.129 33.3773 111.267 32.8026C112.264 32.2707 112.22 32.1306 113.309 31.6474C114.306 31.1155 114.081 30.6463 115.126 30.0229C116.122 29.4911 116.621 30.3379 117.711 29.8547C118.375 29.5002 118.561 29.5975 118.077 30.2811Z" fill="#9FBFFF"/>
<path d="M53.1728 71.3394C51.6823 70.7927 51.6335 70.8842 50.6263 69.6539C51.2513 68.9274 51.2704 68.0006 51.8026 67.2255C52.3348 66.4503 53.561 66.156 54.0932 65.3809C54.6254 64.6057 54.742 63.4958 55.2742 62.7207C55.8064 61.9456 56.4314 61.2191 56.9636 60.444C57.4958 59.6689 58.1208 58.9424 58.653 58.1673C59.1852 57.3922 60.1328 56.9519 60.665 56.1767C61.1972 55.4016 61.9151 54.7238 62.4473 53.9487C62.9794 53.1736 63.5116 52.3984 63.9509 51.5747C64.4831 50.7996 64.5069 49.641 64.8974 48.9087C65.3368 48.085 65.6832 47.2125 66.2154 46.4374C66.6547 45.6137 67.8369 45.1791 68.2762 44.3553C68.7155 43.5316 68.7834 42.5132 69.2227 41.6894L70.5407 39.2181C70.98 38.3943 71.0479 37.3759 71.3943 36.5035C71.7408 35.6311 72.8789 35.0563 73.1766 34.2754C73.523 33.403 73.7766 32.4819 74.1231 31.6095C74.4695 30.7371 74.5374 29.7187 74.7422 28.8892L75.7816 26.2719C76.0352 25.3508 76.3816 24.4784 76.6352 23.5573C76.8888 22.6362 76.4876 21.6063 76.5996 20.7281C76.7603 19.7583 77.1068 18.8859 77.2187 18.0077C77.3794 17.038 78.1949 16.1771 78.258 15.3904C78.3259 14.372 77.7343 13.4765 77.7533 12.5497C77.8212 11.5313 77.9331 10.6531 77.9034 9.81774C77.8296 8.84223 77.3796 7.90382 77.2081 7.11137C76.9486 6.03856 77.251 5.02595 76.9379 4.27638C76.4094 2.59417 75.5391 1.55268 75.5391 1.55268C76.7797 0.563175 77.0535 0.94085 78.3869 0C78.5238 0.188837 79.3595 0.626718 80.0345 2.03433C80.3476 2.7839 79.9035 3.83939 80.1631 4.91221C80.3345 5.70466 81.2583 6.4229 81.425 7.44707C81.5476 8.33105 81.1523 9.295 81.2261 10.2705C81.2559 11.1058 81.5642 12.0871 81.5451 13.014C81.5749 13.8493 81.6487 14.8248 81.4879 15.7945C81.376 16.6728 81.1224 17.5938 81.0105 18.472C80.8986 19.3502 80.9724 20.3257 80.7188 21.2468C80.514 22.0764 79.8401 22.8944 79.6794 23.8641C79.4746 24.6937 79.4555 25.6205 79.2019 26.5416C78.9972 27.3711 78.1376 28.0918 77.884 29.0129C77.5863 29.7938 77.5185 30.8122 77.172 31.6846C76.8256 32.557 76.9922 33.5812 76.6458 34.4536C76.2993 35.3261 75.6743 36.0525 75.3278 36.9249C74.9814 37.7974 74.3563 38.5238 73.917 39.3476C73.4777 40.1714 73.2729 41.0009 72.8336 41.8247L71.5644 44.2045C71.1251 45.0283 70.8715 45.9493 70.4322 46.7731C69.9929 47.5969 69.4167 48.2318 68.9774 49.0556L67.6594 51.5269C67.2201 52.3507 66.8736 53.2231 66.4343 54.0469C65.9021 54.822 64.7688 55.165 64.2366 55.9401C63.7044 56.7153 63.6365 57.7336 63.1044 58.5088C62.5722 59.2839 62.3186 60.205 61.7864 60.9801C61.2542 61.7552 60.3994 62.2442 59.8673 63.0193C59.3351 63.7944 58.5731 64.332 58.041 65.1072C57.5088 65.8823 57.348 66.852 56.723 67.5785C56.1908 68.3536 55.4289 68.8912 54.8038 69.6177C53.9979 70.0151 53.749 70.7045 53.1728 71.3394ZM60.6527 79.5914C59.3574 78.6785 59.4063 78.587 58.8729 77.1365C59.6349 76.5989 60.0694 76.0068 60.7385 75.4206C61.5005 74.8829 62.3064 74.4855 63.0684 73.9478C63.8303 73.4102 64.3625 72.6351 65.1245 72.0975C65.8864 71.5598 66.8293 71.3512 67.6841 70.8623C68.446 70.3246 69.252 69.9272 70.014 69.3896C70.7759 68.8519 71.5819 68.4545 72.3438 67.9169C73.1058 67.3792 73.5939 66.4639 74.3559 65.9263C75.2107 65.4373 76.2417 65.5091 77.0965 65.0201C77.9513 64.5311 78.4835 63.756 79.2894 63.3586C80.1442 62.8696 80.7693 62.1431 81.5753 61.7457C82.4301 61.2567 83.598 61.5173 84.404 61.1199C85.21 60.7224 86.0648 60.2334 86.8708 59.836C87.6767 59.4385 88.5315 58.9496 89.3375 58.5521C90.1435 58.1547 90.9102 57.3853 91.6674 57.0794C92.5663 56.7306 93.3723 56.3332 94.2711 55.9844C95.17 55.6356 95.9319 55.098 96.7819 54.8407C97.6808 54.4919 98.5796 54.1431 99.3368 53.8372C100.236 53.4884 101.135 53.1396 101.985 52.8824C102.883 52.5336 103.689 52.1361 104.539 51.8789C105.482 51.6703 106.332 51.413 107.275 51.2044C108.218 50.9958 109.205 50.9274 110.099 50.8103C111.042 50.6017 112.064 51.1369 112.958 51.0198C113.852 50.9027 114.839 50.8343 115.684 50.8088C116.671 50.7403 117.565 50.6233 118.41 50.5977C119.397 50.5293 120.335 50.5524 121.181 50.5268C122.212 50.5986 123.159 50.1583 124 50.3644C124.982 50.5277 125.964 50.691 126.805 50.8972C127.831 51.2007 128.711 51.7787 129.361 52.1193C130.802 52.7576 131.907 53.8048 132 53.8535C131.082 55.1291 130.667 54.7943 129.563 55.9727C129.563 55.9727 128.63 55.7179 126.905 55.1654C126.206 54.9163 125.321 54.57 124.246 54.358C123.406 54.1518 122.516 54.0372 121.534 53.8739C120.645 53.7593 119.77 52.9495 118.69 52.9693C117.845 52.9948 116.848 53.5267 115.861 53.5951C114.967 53.7122 114.029 53.6891 112.993 53.849C112.099 53.9661 111.117 53.8028 110.174 54.0114C109.28 54.1285 108.469 54.7577 107.478 55.0578C106.628 55.3151 105.773 55.804 104.781 56.1042L102.089 56.9188C101.239 57.1761 100.076 56.6838 99.1772 57.0326C98.2784 57.3814 97.6045 58.1994 96.7057 58.5481C95.8068 58.8969 95.0449 59.4346 94.146 59.7834C93.34 60.1808 92.3971 60.3894 91.4983 60.7382C90.6923 61.1356 89.9304 61.6733 88.9827 62.1136C88.1767 62.511 87.0529 62.3906 86.1981 62.8796C85.3921 63.2771 84.6301 63.8147 83.7753 64.3036C82.9693 64.7011 82.3883 65.5677 81.5335 66.0567C80.7275 66.4542 79.9656 66.9918 79.1108 67.4808C78.256 67.9697 77.406 68.227 76.5511 68.716C75.7892 69.2536 74.9344 69.7426 74.1725 70.2802C73.4105 70.8178 72.3748 70.9778 71.6128 71.5154C70.8509 72.053 70.3627 72.9683 69.6008 73.506C68.8389 74.0436 67.94 74.3924 67.1781 74.93C66.4161 75.4677 65.3804 75.6276 64.6184 76.1652C63.8565 76.7029 63.2314 77.4293 62.4695 77.967C61.898 78.3702 61.4147 79.0538 60.6527 79.5914Z" fill="#82B5A5"/>
</svg>
