<svg width="132" height="130" viewBox="0 0 132 130" fill="none" xmlns="http://www.w3.org/2000/svg">
<path d="M126.06 129.386C124.736 128.908 124.824 128.628 123.593 128.102C122.269 127.625 122.225 127.765 120.901 127.287C119.577 126.81 119.533 126.95 118.209 126.473C116.886 125.995 116.842 126.135 115.518 125.658C114.194 125.181 114.057 125.369 112.826 124.843C111.502 124.366 111.59 124.086 110.359 123.559C109.035 123.082 109.128 123.033 107.755 122.464C106.432 121.987 106.612 121.658 105.289 121.181C103.965 120.703 103.789 121.264 102.465 120.786C101.141 120.309 101.41 119.7 100.086 119.222C98.7621 118.745 98.63 119.165 97.2573 118.596C95.9334 118.119 96.2025 117.51 94.8786 117.032C93.5547 116.555 93.4666 116.835 92.1428 116.358C90.8189 115.88 90.8629 115.74 89.5391 115.263C88.2152 114.785 87.9461 115.395 86.6223 114.917C85.2984 114.44 85.6115 113.69 84.2876 113.213C82.9638 112.735 83.0078 112.595 81.6839 112.118C80.3601 111.64 80.2232 111.829 78.9922 111.303C77.6683 110.826 77.3992 111.435 76.1682 110.909C74.8444 110.432 74.8444 110.432 73.6133 109.905C72.2895 109.428 72.4657 108.867 71.2346 108.341C69.9108 107.864 69.9989 107.583 68.675 107.106C67.3511 106.629 67.1702 106.958 65.9392 106.432C64.6153 105.954 64.7034 105.674 63.4724 105.148C62.1485 104.67 61.9723 105.231 60.5997 104.662C59.2758 104.185 59.3639 103.904 58.1329 103.378C56.809 102.901 56.765 103.041 55.3923 102.472C54.0684 101.995 52.91 102.719 52.6469 101.334C52.2909 99.9983 53.991 100.513 55.0029 99.5142C56.0148 98.5155 55.7755 98.2896 56.6946 97.3396C57.7065 96.341 58.0435 96.75 59.0554 95.7514C60.0673 94.7528 59.828 94.5269 60.7471 93.5769C61.759 92.5783 61.3292 92.2179 62.2483 91.268C63.2602 90.2694 63.4067 90.544 64.4186 89.5453C65.4305 88.5467 65.7675 88.9557 66.7794 87.9571C67.7913 86.9585 67.7913 86.9585 68.7104 86.0085C69.7223 85.0099 69.0532 84.4236 69.9723 83.4737C70.9842 82.475 71.1307 82.7496 72.1426 81.751C73.1545 80.7524 73.3009 81.027 74.3129 80.0284C75.3248 79.0298 75.5641 79.2557 76.4832 78.3057C77.4951 77.3071 77.0653 76.9468 78.0772 75.9482C79.0892 74.9496 78.8987 74.8151 79.8178 73.8652C80.8297 72.8666 80.688 72.8237 81.6999 71.8251C82.7119 70.8265 83.2881 71.4614 84.3 70.4628C85.3119 69.4642 84.931 69.1953 85.9429 68.1967C86.9548 67.1981 87.0525 67.3812 88.0644 66.3826C89.0763 65.3839 88.6465 65.0236 89.6585 64.025C90.6704 63.0264 91.149 63.4782 92.0681 62.5283C93.08 61.5297 92.4597 61.0349 93.4716 60.0363C94.4836 59.0377 94.9622 59.4896 95.8812 58.5396C96.8932 57.541 96.4634 57.1806 97.4753 56.182C98.4872 55.1834 98.5849 55.3665 99.5968 54.3678C100.609 53.3692 100.169 52.5454 101.537 52.8827C102.905 53.2199 101.933 53.8466 102.523 55.1767C103.065 56.4153 103.299 56.4095 103.841 57.648C104.383 58.8866 104.617 58.8808 105.159 60.1194C105.701 61.3579 105.144 61.6498 105.592 62.937C106.134 64.1756 106.369 64.1698 106.817 65.457C107.257 66.2808 107.628 66.0862 108.219 67.4162C108.76 68.6548 108.11 68.9954 108.652 70.2339C109.194 71.4725 109.008 71.5698 109.506 72.9485C110.048 74.187 110.048 74.187 110.638 75.5171C111.18 76.7557 111.273 76.707 111.863 78.0371C112.405 79.2756 112.498 79.227 113.088 80.5571C113.63 81.7956 113.351 81.9416 113.893 83.1801C114.435 84.4187 114.762 84.3642 115.211 85.6514C115.753 86.89 116.266 86.7382 116.808 87.9768C117.349 89.2153 116.792 89.5073 117.334 90.7458C117.876 91.9844 118.389 91.8326 118.93 93.0712C119.472 94.3097 119.379 94.3584 119.877 95.7371C120.419 96.9756 120.653 96.9699 121.102 98.2571C121.644 99.4956 121.458 99.5929 122.048 100.923C122.59 102.162 122.312 102.308 122.853 103.546C123.395 104.785 123.815 104.682 124.357 105.92C124.899 107.159 124.62 107.305 125.069 108.592C125.611 109.83 125.053 110.122 125.502 111.409C126.044 112.648 126.371 112.594 126.82 113.881C127.362 115.119 127.689 115.065 128.231 116.303C128.773 117.542 128.587 117.639 129.178 118.969C129.719 120.208 129.861 120.251 130.403 121.489C130.944 122.728 131.272 122.673 131.813 123.912C132.111 124.693 131.993 125.809 131.866 126.461C131.694 127.253 131.098 127.917 130.502 128.581C129.949 129.105 129.211 129.725 128.371 129.932C127.672 130.181 126.817 129.692 126.06 129.386Z" fill="#FF8A00"/>
<path d="M52.4564 101.2C53.0326 101.835 54.2101 102.037 55.3827 102.009C56.1792 101.943 57.1566 101.548 58.1828 101.244C58.9745 100.946 59.6638 100.234 60.6412 99.839C61.3841 99.4497 62.6544 99.6039 63.4413 99.0745C64.2771 98.6366 65.1616 98.2903 66.0414 97.7122C66.8283 97.1828 67.5665 96.5618 68.3534 96.0324C69.1403 95.503 69.9761 95.0651 70.7142 94.4442C71.5011 93.9148 71.9999 93.0679 72.738 92.447C73.4761 91.826 74.0238 91.0707 74.7619 90.4497C75.5 89.8288 76.2869 89.2994 76.9762 88.5869C77.7143 87.966 78.262 87.2106 79.0001 86.5897C79.7382 85.9687 80.6227 85.6224 81.312 84.9099C82.0014 84.1974 82.2609 83.1246 82.999 82.5037C83.6883 81.7912 84.2847 81.1274 84.974 80.4149C85.6633 79.7025 86.4014 79.0815 86.9979 78.4177C87.6872 77.7052 88.6646 77.3102 89.261 76.6464C89.9503 75.9339 90.2587 74.9526 90.8551 74.2888C91.4956 73.4848 92.3313 73.0469 92.879 72.2916C93.5195 71.4876 93.8766 70.5978 94.4242 69.8425C94.9719 69.0871 95.6123 68.2831 96.16 67.5278C96.7076 66.7724 97.0647 65.8827 97.5636 65.0358C98.0624 64.1889 98.61 63.4336 99.1088 62.5867C99.6076 61.7398 99.9648 60.8501 100.371 60.0518C100.821 59.1134 101.368 58.3581 101.633 57.517C101.941 56.5357 102.015 55.5602 102.045 54.7248C102.114 53.5176 102.324 52.3533 101.704 51.8585C101.128 51.2236 99.8575 51.0694 98.6848 51.0983C97.8883 51.1643 96.9062 51.3276 95.7871 51.6797C94.9954 51.9774 93.9692 52.2809 93.1334 52.7188C92.3905 53.108 91.8036 54.2352 90.9679 54.6731C90.1321 55.111 89.2476 55.4573 88.4607 55.9868C87.6737 56.5162 87.0773 57.18 86.1975 57.758C85.4106 58.2875 84.1403 58.1333 83.4022 58.7542C82.6152 59.2836 82.1164 60.1305 81.3295 60.6599C80.5914 61.2809 79.7068 61.6272 78.9687 62.2482C78.2306 62.8691 78.0199 64.0334 77.3306 64.7459C76.5925 65.3669 75.5663 65.6703 74.9698 66.3341C74.2317 66.9551 73.4448 67.4845 72.7555 68.197C72.0662 68.9095 71.2304 69.3473 70.5411 70.0598C69.8518 70.7723 69.3042 71.5276 68.6149 72.2401C67.9256 72.9526 67.378 73.7079 66.7815 74.3717C66.0922 75.0842 65.9744 76.1999 65.2851 76.9124C64.5958 77.6248 63.8089 78.1543 63.2612 78.9096C62.6207 79.7136 62.0731 80.4689 61.5255 81.2243C60.885 82.0283 60.6695 82.9609 60.0731 83.6248C59.5255 84.3801 58.504 84.9153 57.9564 85.6706C57.4087 86.426 57.2909 87.5417 56.7433 88.297C56.2445 89.1439 55.3647 89.722 54.9587 90.5202C54.4599 91.3671 53.7706 92.0795 53.3647 92.8778C52.9146 93.8162 52.9825 94.8346 52.7182 95.6757C52.4099 96.657 51.9599 97.5954 51.9302 98.4307C51.7635 99.4549 51.7873 100.613 52.4564 101.2Z" fill="#2B292D"/>
<path d="M71.1845 26.0424C71.8191 27.2322 72.1905 27.0376 72.8251 28.2275C73.4596 29.4174 73.0882 29.612 73.8156 30.7533C74.4502 31.9432 74.7288 31.7972 75.4562 32.9384C76.0908 34.1283 76.3587 35.7446 75.7277 37.012C75.0479 38.1879 74.9063 38.145 74.3194 39.2723C73.6396 40.4482 73.3074 40.2709 72.6277 41.4468L71.2681 43.7986C70.7693 44.6455 72.2491 45.8609 73.1337 45.5145C74.3409 44.8821 74.1456 44.5159 75.304 43.7919C76.5112 43.1594 76.56 43.2509 77.7184 42.5269C78.9255 41.8944 79.1208 42.2605 80.328 41.6281C81.5351 40.9956 83.0745 40.5403 84.3543 41.158C85.5413 41.8242 85.2234 42.3421 86.5032 42.9597C87.6902 43.6259 88.0521 42.9679 89.2391 43.6342C90.426 44.3004 90.0641 44.9584 91.2511 45.6247C92.1059 46.1137 92.8785 44.8891 92.4392 44.0654C91.8046 42.8755 92.1761 42.6809 91.5415 41.491C90.9069 40.3011 90.6283 40.447 89.9938 39.2571C89.3592 38.0672 89.3592 38.0672 88.6318 36.926C87.9972 35.7361 88.5305 34.2856 89.1615 33.0182C89.8413 31.8423 89.7925 31.7507 90.3794 30.6235C91.0591 29.4476 90.4436 29.1846 91.0746 27.9171C91.7055 26.6497 92.277 27.0529 92.908 25.7855C93.4068 24.9386 92.0686 23.7661 91.2329 24.2039C90.0257 24.8364 90.2209 25.2026 89.0138 25.835L86.5994 27.1C85.3922 27.7325 85.2946 27.5495 84.0874 28.182C82.8802 28.8145 81.2873 28.9464 80.1003 28.2802C78.9134 27.6139 79.0943 27.2849 77.9074 26.6186C76.7204 25.9524 76.4954 26.4216 75.3085 25.7553C74.1215 25.0891 73.9405 25.4181 72.7536 24.7518C71.7619 24.4517 70.7452 25.2186 71.1845 26.0424Z" fill="#FF8A00"/>
<path d="M30.3753 74.9439C31.1564 76.4083 31.8064 76.0678 32.5386 77.4407C33.2708 78.8137 32.4838 79.3431 33.3577 80.7589C33.8947 81.7658 34.0506 82.5038 33.5078 83.4908L31.972 86.4034C31.2042 87.8596 31.3458 87.9025 30.578 89.3588C30.2161 90.0168 31.1733 90.9206 31.8233 90.58C33.309 89.8016 33.1626 89.527 34.5067 88.7056C35.9925 87.9272 35.8948 87.7441 37.2877 87.0143C38.3092 86.4791 39.8581 86.4873 40.8545 87.0192C42.3248 87.7712 42.2808 87.9114 43.7511 88.6634C45.2214 89.4154 44.9524 90.0248 46.3298 90.8255C46.9941 91.18 47.8644 90.1385 47.4739 89.4063C46.6929 87.9418 47.1572 87.6985 46.2833 86.2827C45.5023 84.8182 44.8523 85.1588 44.1201 83.7859C43.5831 82.779 43.6474 81.3401 44.1903 80.353C44.9581 78.8968 45.4808 79.2084 46.2486 77.7522C47.0165 76.2959 46.4939 75.9842 47.2617 74.5279C47.6236 73.8699 47.2915 73.6926 46.6415 74.0332C45.1557 74.8116 44.814 74.1709 43.3771 75.0409C41.8913 75.8194 42.1354 76.277 40.7425 77.0068C39.721 77.542 38.4019 77.2963 37.4054 76.7645C35.9351 76.0125 35.7101 76.4817 34.2398 75.7296C32.7695 74.9776 33.1754 74.1794 31.754 73.5189C31.1825 73.1157 30.0337 74.3032 30.3753 74.9439Z" fill="#3040C4"/>
<path d="M13.9228 30.2811L14.9967 32.2947C15.5336 33.3016 15.3479 33.3989 15.8848 34.4057L16.9587 36.4194C17.5445 37.5177 17.3385 38.9138 16.7957 39.9009C16.2528 40.8879 16.3016 40.9795 15.7588 41.9665C15.2159 42.9536 14.7909 42.8249 14.248 43.812C13.7051 44.7991 13.7051 44.7991 13.2111 45.8777C12.7563 46.5844 13.7528 47.1162 14.4957 46.727C15.5171 46.1918 15.566 46.2833 16.5874 45.7481C17.6089 45.213 17.6577 45.3045 18.6792 44.7693C19.7006 44.2341 19.7982 44.4172 20.8197 43.882C21.934 43.2981 23.0186 43.5496 24.0151 44.0815C25.0115 44.6133 25.0604 44.7049 26.0568 45.2367C27.0533 45.7686 27.1462 45.7199 28.1426 46.2518C29.1391 46.7836 29.232 46.735 30.2285 47.2668C30.9416 47.7129 32.0904 46.5255 31.6999 45.7932C31.163 44.7864 31.2558 44.7377 30.7189 43.7309C30.182 42.7241 29.5319 43.0646 28.995 42.0578C28.458 41.051 29.0152 40.759 28.4295 39.6607C27.8437 38.5623 27.9175 37.5868 28.4604 36.5998C29.0032 35.6127 28.4318 35.2095 28.9746 34.2224C29.5175 33.2353 29.8008 33.3211 30.3437 32.334C30.8866 31.347 30.9794 31.2983 31.5223 30.3113C31.977 29.6046 31.1663 28.9754 30.4234 29.3646C29.4019 29.8998 29.1091 29.3506 28.1364 29.9773C27.115 30.5125 27.115 30.5125 26.1423 31.1393C25.1209 31.6744 25.3649 32.1321 24.3435 32.6673C23.2291 33.2511 21.8708 33.3773 20.7326 32.8026C19.7361 32.2707 19.7802 32.1306 18.6908 31.6474C17.6944 31.1155 17.9194 30.6463 16.8741 30.0229C15.8776 29.4911 15.3788 30.3379 14.2895 29.8547C13.6251 29.5002 13.4394 29.5975 13.9228 30.2811Z" fill="#9FBFFF"/>
<path d="M78.8272 71.3394C80.3177 70.7927 80.3665 70.8842 81.3737 69.6539C80.7487 68.9274 80.7296 68.0006 80.1974 67.2255C79.6653 66.4503 78.439 66.156 77.9068 65.3809C77.3746 64.6057 77.258 63.4958 76.7258 62.7207C76.1936 61.9456 75.5686 61.2191 75.0364 60.444C74.5042 59.6689 73.8792 58.9424 73.347 58.1673C72.8148 57.3922 71.8672 56.9519 71.335 56.1767C70.8028 55.4016 70.0849 54.7238 69.5527 53.9487C69.0206 53.1736 68.4884 52.3984 68.0491 51.5747C67.5169 50.7996 67.4931 49.641 67.1026 48.9087C66.6632 48.085 66.3168 47.2125 65.7846 46.4374C65.3453 45.6137 64.1631 45.1791 63.7238 44.3553C63.2845 43.5316 63.2166 42.5132 62.7773 41.6894L61.4593 39.2181C61.02 38.3943 60.9521 37.3759 60.6057 36.5035C60.2592 35.6311 59.1211 35.0563 58.8234 34.2754C58.477 33.403 58.2234 32.4819 57.8769 31.6095C57.5305 30.7371 57.4626 29.7187 57.2578 28.8892L56.2184 26.2719C55.9648 25.3508 55.6184 24.4784 55.3648 23.5573C55.1112 22.6362 55.5124 21.6063 55.4004 20.7281C55.2397 19.7583 54.8933 18.8859 54.7813 18.0077C54.6206 17.038 53.8051 16.1771 53.742 15.3904C53.6741 14.372 54.2658 13.4765 54.2467 12.5497C54.1788 11.5313 54.0669 10.6531 54.0966 9.81774C54.1704 8.84223 54.6204 7.90382 54.7919 7.11137C55.0514 6.03856 54.749 5.02595 55.0621 4.27638C55.5906 2.59417 56.4609 1.55268 56.4609 1.55268C55.2203 0.563175 54.9465 0.94085 53.6131 0C53.4762 0.188837 52.6405 0.626718 51.9655 2.03433C51.6524 2.7839 52.0965 3.83939 51.8369 4.91221C51.6655 5.70466 50.7417 6.4229 50.575 7.44707C50.4524 8.33105 50.8477 9.295 50.7739 10.2705C50.7441 11.1058 50.4358 12.0871 50.4549 13.014C50.4251 13.8493 50.3513 14.8248 50.5121 15.7945C50.624 16.6728 50.8776 17.5938 50.9895 18.472C51.1014 19.3502 51.0276 20.3257 51.2812 21.2468C51.486 22.0764 52.1599 22.8944 52.3206 23.8641C52.5254 24.6937 52.5445 25.6205 52.7981 26.5416C53.0028 27.3711 53.8624 28.0918 54.116 29.0129C54.4137 29.7938 54.4815 30.8122 54.828 31.6846C55.1744 32.557 55.0078 33.5812 55.3542 34.4536C55.7007 35.3261 56.3257 36.0525 56.6722 36.9249C57.0186 37.7974 57.6437 38.5238 58.083 39.3476C58.5223 40.1714 58.7271 41.0009 59.1664 41.8247L60.4356 44.2045C60.8749 45.0283 61.1285 45.9493 61.5678 46.7731C62.0071 47.5969 62.5833 48.2318 63.0226 49.0556L64.3406 51.5269C64.7799 52.3507 65.1264 53.2231 65.5657 54.0469C66.0979 54.822 67.2312 55.165 67.7634 55.9401C68.2956 56.7153 68.3635 57.7336 68.8957 58.5088C69.4278 59.2839 69.6814 60.205 70.2136 60.9801C70.7458 61.7552 71.6006 62.2442 72.1328 63.0193C72.6649 63.7944 73.4269 64.332 73.9591 65.1072C74.4912 65.8823 74.652 66.852 75.277 67.5785C75.8092 68.3536 76.5711 68.8912 77.1962 69.6177C78.0022 70.0151 78.251 70.7045 78.8272 71.3394ZM71.3473 79.5914C72.6426 78.6785 72.5937 78.587 73.1271 77.1365C72.3651 76.5989 71.9306 76.0068 71.2615 75.4206C70.4995 74.8829 69.6936 74.4855 68.9316 73.9478C68.1697 73.4102 67.6375 72.6351 66.8756 72.0975C66.1136 71.5598 65.1707 71.3512 64.3159 70.8623C63.554 70.3246 62.748 69.9272 61.986 69.3896C61.2241 68.8519 60.4181 68.4545 59.6562 67.9169C58.8942 67.3792 58.4061 66.4639 57.6441 65.9263C56.7893 65.4373 55.7583 65.5091 54.9035 65.0201C54.0487 64.5311 53.5166 63.756 52.7106 63.3586C51.8558 62.8696 51.2307 62.1431 50.4247 61.7457C49.5699 61.2567 48.402 61.5173 47.596 61.1199C46.7901 60.7224 45.9352 60.2334 45.1293 59.836C44.3233 59.4385 43.4685 58.9496 42.6625 58.5521C41.8565 58.1547 41.0898 57.3853 40.3326 57.0794C39.4337 56.7306 38.6278 56.3332 37.7289 55.9844C36.8301 55.6356 36.0681 55.098 35.2181 54.8407C34.3192 54.4919 33.4204 54.1431 32.6632 53.8372C31.7643 53.4884 30.8655 53.1396 30.0154 52.8824C29.1166 52.5336 28.3106 52.1361 27.4606 51.8789C26.5177 51.6703 25.6676 51.413 24.7247 51.2044C23.7818 50.9958 22.7949 50.9274 21.9008 50.8103C20.9579 50.6017 19.9365 51.1369 19.0424 51.0198C18.1483 50.9027 17.1613 50.8343 16.3161 50.8088C15.3291 50.7403 14.435 50.6233 13.5898 50.5977C12.6028 50.5293 11.6647 50.5524 10.8194 50.5268C9.78843 50.5986 8.84077 50.1583 8.00026 50.3644C7.01808 50.5277 6.0359 50.691 5.19539 50.8972C4.16916 51.2007 3.28938 51.7787 2.63936 52.1193C1.19765 52.7576 0.09286 53.8048 0 53.8535C0.917914 55.1291 1.3334 54.7943 2.43703 55.9727C2.43703 55.9727 3.3704 55.7179 5.09546 55.1654C5.79429 54.9163 6.67885 54.57 7.75389 54.358C8.59439 54.1518 9.48371 54.0372 10.4659 53.8739C11.3552 53.7593 12.2302 52.9495 13.31 52.9693C14.1553 52.9948 15.1518 53.5267 16.1387 53.5951C17.0328 53.7122 17.9709 53.6891 19.0067 53.849C19.9008 53.9661 20.883 53.8028 21.8259 54.0114C22.7199 54.1285 23.5307 54.7577 24.5224 55.0578C25.3725 55.3151 26.2273 55.804 27.219 56.1042L29.9108 56.9188C30.7608 57.1761 31.9239 56.6838 32.8228 57.0326C33.7216 57.3814 34.3955 58.1994 35.2943 58.5481C36.1932 58.8969 36.9551 59.4346 37.854 59.7834C38.66 60.1808 39.6029 60.3894 40.5017 60.7382C41.3077 61.1356 42.0696 61.6733 43.0173 62.1136C43.8233 62.511 44.9472 62.3906 45.802 62.8796C46.6079 63.2771 47.3699 63.8147 48.2247 64.3036C49.0307 64.7011 49.6117 65.5677 50.4665 66.0567C51.2725 66.4542 52.0344 66.9918 52.8892 67.4808C53.744 67.9697 54.5941 68.227 55.4489 68.716C56.2108 69.2536 57.0656 69.7426 57.8275 70.2802C58.5895 70.8178 59.6252 70.9778 60.3872 71.5154C61.1491 72.053 61.6373 72.9683 62.3992 73.506C63.1612 74.0436 64.06 74.3924 64.822 74.93C65.5839 75.4677 66.6197 75.6276 67.3816 76.1652C68.1435 76.7029 68.7686 77.4293 69.5305 77.967C70.102 78.3702 70.5853 79.0538 71.3473 79.5914Z" fill="#82B5A5"/>
</svg>
