<svg width="592" height="521" viewBox="0 0 592 521" fill="none" xmlns="http://www.w3.org/2000/svg">
<path d="M592 0H153.176C150.68 7.82007 148.402 15.8073 146.116 23.8253C139.56 46.8143 132.932 70.0565 120.877 90.338C107.781 112.371 85.2846 131.476 63.2239 150.211C26.2949 181.574 -9.41186 211.898 2.24726 253.177C13.3289 292.411 55.9884 301.479 100.418 310.924C135.245 318.327 171.159 325.961 193.805 348.537C213.848 368.517 218.749 402.397 223.446 434.869C229.371 475.826 234.972 514.544 270.222 520.314C306.895 526.317 328.277 491.94 350.635 455.993C369.305 425.977 388.655 394.866 418.157 385.258C447.94 375.558 479.236 387.531 510.288 399.409C538.145 410.066 565.806 420.648 592 415.437V0Z" fill="url(#paint0_linear_732_1658)"/>
<defs>
<linearGradient id="paint0_linear_732_1658" x1="191.379" y1="91.0811" x2="127.382" y2="561.145" gradientUnits="userSpaceOnUse">
<stop stop-color="#FFF4DE"/>
<stop offset="1" stop-color="white"/>
</linearGradient>
</defs>
</svg>
