<svg width="232" height="398" viewBox="0 0 232 398" fill="none" xmlns="http://www.w3.org/2000/svg">
<path d="M0 394.318C19.164 399.067 38.2335 399.352 54.681 389.937C72.5545 379.705 76.0695 358.242 79.6481 336.391C82.8426 316.884 86.0878 297.069 99.6426 284.656C115.336 270.286 139.502 266.756 162.941 263.333C192.323 259.041 220.562 254.917 229.539 229.815C241.913 195.214 205.181 164.434 173.849 138.178C167.969 133.251 162.28 128.483 157.141 123.88C144.535 112.588 128.22 108.211 111.842 103.816C96.6317 99.7354 81.3674 95.6399 68.9698 85.9785C56.4428 76.2163 48.5797 60.2168 40.9146 44.6202C30.5724 23.5763 20.5907 3.26603 0 0V394.318Z" fill="url(#paint0_linear_733_1269)"/>
<defs>
<linearGradient id="paint0_linear_733_1269" x1="75" y1="69.5" x2="-15.488" y2="410.846" gradientUnits="userSpaceOnUse">
<stop stop-color="#FFF4DE"/>
<stop offset="1" stop-color="white"/>
</linearGradient>
</defs>
</svg>
