<svg width="228" height="254" viewBox="0 0 228 254" fill="none" xmlns="http://www.w3.org/2000/svg">
<path d="M165.588 171.801C163.101 176.344 164.971 178.864 168.287 182.255L173.212 167.095C171.634 167.111 170.091 167.558 168.747 168.387C167.404 169.216 166.311 170.396 165.588 171.801Z" fill="#FFE4B0"/>
<path d="M171.788 194.805L165.273 214.86C167.472 214.869 169.631 214.272 171.513 213.135C173.396 211.998 174.93 210.364 175.948 208.412C178.971 202.613 176.353 198.365 171.788 194.805Z" fill="#FFE4B0"/>
<path d="M202.044 139.576C205.714 138.302 209.041 136.195 211.763 133.42C214.485 130.644 216.528 127.275 217.734 123.577C217.88 123.126 217.936 122.651 217.9 122.178C217.863 121.706 217.733 121.245 217.519 120.823C217.304 120.401 217.008 120.025 216.649 119.717C216.289 119.409 215.872 119.175 215.422 119.029L174.308 105.633C173.858 105.486 173.384 105.43 172.912 105.466C172.44 105.503 171.98 105.633 171.559 105.848C171.137 106.063 170.762 106.359 170.454 106.719C170.147 107.08 169.913 107.497 169.767 107.948C168.564 111.664 168.239 115.609 168.819 119.472C169.399 123.336 170.868 127.011 173.109 130.208C160.265 129.777 147.633 133.572 137.148 141.014C126.663 148.455 118.901 159.133 115.051 171.413L105.491 200.84C103.43 207.211 103.976 214.14 107.01 220.108C110.043 226.076 115.316 230.595 121.672 232.674L183.343 252.768C189.704 254.833 196.623 254.286 202.582 251.248C208.54 248.21 213.053 242.929 215.129 236.564L225.161 205.682C229.079 193.649 228.938 180.66 224.761 168.715C220.584 156.77 212.602 146.531 202.044 139.576ZM182.336 211.749C180.545 215.236 177.725 218.086 174.26 219.911C170.795 221.736 166.853 222.449 162.969 221.951L161.44 226.659C161.145 227.569 160.5 228.324 159.648 228.759C158.797 229.193 157.808 229.27 156.899 228.974C155.991 228.678 155.237 228.033 154.803 227.18C154.37 226.327 154.292 225.337 154.588 224.427L156.027 219.997C151.555 218.39 147.671 215.469 144.884 211.615C144.587 211.246 144.367 210.821 144.234 210.366C144.101 209.911 144.06 209.435 144.111 208.963C144.215 208.012 144.692 207.14 145.437 206.541C146.182 205.941 147.135 205.663 148.085 205.767C149.035 205.871 149.905 206.349 150.504 207.095C152.415 209.851 155.117 211.961 158.253 213.144L165.815 189.866C158.576 183.378 154.371 177.292 159.268 168.333C160.789 165.439 163.166 163.087 166.073 161.599C168.981 160.11 172.277 159.559 175.51 160.02C176.193 158.806 176.684 151.941 181.422 153.485C181.872 153.631 182.289 153.865 182.649 154.173C183.008 154.481 183.304 154.857 183.519 155.279C183.733 155.702 183.863 156.162 183.9 156.634C183.936 157.107 183.88 157.582 183.734 158.033L182.448 161.991C185.917 163.635 188.846 166.234 190.893 169.485C191.358 170.317 191.475 171.3 191.219 172.219C190.962 173.138 190.353 173.918 189.525 174.388C188.696 174.858 187.715 174.981 186.796 174.729C185.878 174.477 185.096 173.872 184.622 173.044C183.496 171.34 181.974 169.935 180.187 168.95L174.163 187.496C175.21 188.341 176.268 189.17 177.306 189.967C180.677 192.339 183.055 195.874 183.984 199.894C184.912 203.914 184.325 208.136 182.336 211.749Z" fill="#FFE4B0"/>
<path d="M38.9557 137.909L174.503 88.8787C177.197 87.9008 179.394 85.8925 180.612 83.2944C181.829 80.6962 181.968 77.7205 180.997 75.0201L156.519 7.14448C155.542 4.44619 153.537 2.246 150.943 1.02667C148.349 -0.192673 145.377 -0.331579 142.681 0.640426L7.13374 49.671C4.43951 50.6489 2.24263 52.6572 1.02512 55.2553C-0.192384 57.8534 -0.331081 60.8292 0.639463 63.5296L25.1179 131.405C26.0943 134.104 28.0996 136.304 30.6939 137.523C33.2881 138.742 36.2593 138.881 38.9557 137.909ZM164.491 50.4935C157.004 54.0988 150.988 60.1804 147.459 67.712C143.929 75.2435 143.102 83.7639 145.117 91.8352L63.4456 121.378C59.8457 113.88 53.7732 107.855 46.2529 104.32C38.7327 100.786 30.2251 99.9576 22.166 101.976L17.1461 88.0562C24.6328 84.4509 30.6485 78.3693 34.1779 70.8377C37.7072 63.3062 38.5343 54.7858 36.5194 46.7145L118.191 17.172C121.791 24.67 127.863 30.6946 135.384 34.2293C142.904 37.7639 151.412 38.5921 159.471 36.5741L164.491 50.4935ZM31.8953 128.954L24.6367 108.827C30.8744 107.431 37.3984 108.149 43.1844 110.869C48.9704 113.588 53.6908 118.155 56.6046 123.852L36.5079 131.122C35.6091 131.446 34.6186 131.4 33.7538 130.993C32.8891 130.587 32.2206 129.853 31.8953 128.954ZM172.055 82.0912L151.958 89.3606C150.565 83.1135 151.282 76.5798 153.997 70.785C156.713 64.9903 161.273 60.2628 166.961 57.3447L174.22 77.4716C174.543 78.3718 174.497 79.3637 174.091 80.2298C173.686 81.0958 172.953 81.7653 172.055 82.0912ZM149.741 9.59601L157 29.723C150.762 31.1189 144.238 30.4007 138.452 27.6811C132.666 24.9616 127.946 20.3947 125.032 14.6974L145.129 7.42799C146.028 7.10389 147.018 7.15015 147.883 7.55661C148.748 7.96307 149.416 8.69652 149.741 9.59601ZM9.58159 56.4585L29.6783 49.1891C31.0721 55.4362 30.355 61.9699 27.6395 67.7646C24.9241 73.5593 20.3641 78.2869 14.6753 81.205L7.41683 61.0781C7.09322 60.1779 7.13941 59.186 7.54525 58.3199C7.9511 57.4538 8.68345 56.7844 9.58159 56.4585Z" fill="#222222"/>
<path d="M90.8185 44.0164C85.8303 44.0164 80.9542 45.4978 76.8067 48.2732C72.6592 51.0487 69.4266 54.9935 67.5177 59.6089C65.6088 64.2243 65.1094 69.3029 66.0825 74.2026C67.0557 79.1022 69.4577 83.6029 72.9849 87.1354C76.512 90.6678 81.0059 93.0735 85.8982 94.0481C90.7905 95.0227 95.8615 94.5225 100.47 92.6107C105.078 90.699 109.017 87.4615 111.789 83.3078C114.56 79.154 116.039 74.2706 116.039 69.2749C116.031 62.5783 113.372 56.1583 108.643 51.4231C103.915 46.6879 97.505 44.0242 90.8185 44.0164ZM90.8185 87.3167C87.2555 87.3167 83.7726 86.2586 80.8101 84.2761C77.8476 82.2936 75.5386 79.4759 74.1751 76.1792C72.8116 72.8825 72.4548 69.2549 73.1499 65.7551C73.845 62.2554 75.5608 59.0406 78.0802 56.5174C80.5996 53.9942 83.8095 52.2759 87.304 51.5798C90.7985 50.8836 94.4207 51.2409 97.7124 52.6064C101.004 53.972 103.818 56.2845 105.797 59.2514C107.777 62.2184 108.833 65.7066 108.833 69.2749C108.828 74.0581 106.928 78.6439 103.551 82.0262C100.173 85.4084 95.5946 87.3111 90.8185 87.3167Z" fill="#222222"/>
<path d="M58.2141 249.247C66.0527 249.247 73.7151 246.919 80.2326 242.558C86.7501 238.197 91.8299 231.998 94.8296 224.745C97.8293 217.492 98.6141 209.511 97.0849 201.812C95.5557 194.112 91.7811 187.04 86.2384 181.489C80.6957 175.938 73.6339 172.158 65.946 170.626C58.2581 169.095 50.2894 169.881 43.0475 172.885C35.8056 175.889 29.6159 180.976 25.2611 187.504C20.9062 194.031 18.5818 201.705 18.5818 209.555C18.5937 220.079 22.7731 230.168 30.203 237.609C37.6329 245.05 47.7066 249.235 58.2141 249.247ZM58.2141 177.08C64.6275 177.08 70.8968 178.985 76.2293 182.553C81.5618 186.122 85.718 191.194 88.1722 197.128C90.6265 203.062 91.2687 209.591 90.0175 215.891C88.7663 222.191 85.678 227.977 81.1431 232.519C76.6081 237.061 70.8303 240.154 64.5402 241.407C58.2501 242.66 51.7302 242.017 45.8051 239.559C39.8799 237.101 34.8156 232.938 31.2525 227.598C27.6895 222.257 25.7877 215.978 25.7877 209.555C25.7974 200.945 29.2169 192.691 35.2959 186.603C41.3749 180.514 49.6171 177.09 58.2141 177.08Z" fill="#222222"/>
<path d="M58.2141 234.814C59.1697 234.814 60.0861 234.434 60.7618 233.757C61.4375 233.08 61.8171 232.163 61.8171 231.206C61.8171 230.249 61.4375 229.331 60.7618 228.654C60.0861 227.977 59.1697 227.597 58.2141 227.597C53.4381 227.592 48.8592 225.689 45.482 222.307C42.1048 218.924 40.2051 214.339 40.1994 209.555C40.1994 208.598 39.8199 207.681 39.1442 207.004C38.4685 206.327 37.5521 205.947 36.5965 205.947C35.641 205.947 34.7245 206.327 34.0489 207.004C33.3732 207.681 32.9936 208.598 32.9936 209.555C33.0014 216.252 35.661 222.672 40.3891 227.407C45.1172 232.142 51.5276 234.806 58.2141 234.814Z" fill="#222222"/>
<path d="M58.2141 191.514C62.9902 191.519 67.569 193.422 70.9462 196.804C74.3234 200.186 76.2232 204.772 76.2288 209.555C76.2288 210.512 76.6084 211.43 77.2841 212.107C77.9598 212.784 78.8762 213.164 79.8317 213.164C80.7873 213.164 81.7037 212.784 82.3794 212.107C83.0551 211.43 83.4347 210.512 83.4347 209.555C83.4269 202.859 80.7672 196.439 76.0391 191.704C71.3111 186.968 64.9006 184.305 58.2141 184.297C57.2586 184.297 56.3421 184.677 55.6665 185.354C54.9908 186.03 54.6112 186.948 54.6112 187.905C54.6112 188.862 54.9908 189.78 55.6665 190.457C56.3421 191.133 57.2586 191.514 58.2141 191.514Z" fill="#222222"/>
<path d="M134.054 123.4C126.215 123.4 118.553 125.728 112.035 130.09C105.518 134.451 100.438 140.65 97.4382 147.903C94.4386 155.156 93.6537 163.136 95.1829 170.836C96.7122 178.535 100.487 185.608 106.029 191.159C111.572 196.71 118.634 200.49 126.322 202.021C134.01 203.553 141.978 202.767 149.22 199.763C156.462 196.759 162.652 191.671 167.007 185.144C171.362 178.617 173.686 170.943 173.686 163.092C173.674 152.569 169.495 142.48 162.065 135.039C154.635 127.598 144.561 123.412 134.054 123.4ZM134.054 195.567C127.64 195.567 121.371 193.663 116.039 190.094C110.706 186.526 106.55 181.454 104.096 175.52C101.641 169.586 100.999 163.056 102.25 156.757C103.502 150.457 106.59 144.67 111.125 140.129C115.66 135.587 121.438 132.494 127.728 131.241C134.018 129.988 140.538 130.631 146.463 133.089C152.388 135.547 157.452 139.709 161.015 145.05C164.578 150.39 166.48 156.669 166.48 163.092C166.47 171.702 163.051 179.957 156.972 186.045C150.893 192.133 142.651 195.558 134.054 195.567Z" fill="#222222"/>
<path d="M134.054 181.134C129.278 181.128 124.699 179.226 121.322 175.843C117.944 172.461 116.045 167.875 116.039 163.092C116.039 162.135 115.659 161.217 114.984 160.541C114.308 159.864 113.392 159.484 112.436 159.484C111.481 159.484 110.564 159.864 109.888 160.541C109.213 161.217 108.833 162.135 108.833 163.092C108.841 169.789 111.501 176.209 116.229 180.944C120.957 185.679 127.367 188.343 134.054 188.351C135.009 188.351 135.926 187.971 136.601 187.294C137.277 186.617 137.657 185.699 137.657 184.742C137.657 183.785 137.277 182.868 136.601 182.191C135.926 181.514 135.009 181.134 134.054 181.134Z" fill="#222222"/>
<path d="M134.054 137.834C133.098 137.834 132.182 138.214 131.506 138.891C130.83 139.567 130.451 140.485 130.451 141.442C130.451 142.399 130.83 143.317 131.506 143.994C132.182 144.67 133.098 145.05 134.054 145.05C138.83 145.056 143.409 146.959 146.786 150.341C150.163 153.723 152.063 158.309 152.068 163.092C152.068 164.049 152.448 164.967 153.124 165.644C153.799 166.32 154.716 166.701 155.671 166.701C156.627 166.701 157.543 166.32 158.219 165.644C158.895 164.967 159.274 164.049 159.274 163.092C159.266 156.396 156.607 149.976 151.879 145.24C147.151 140.505 140.74 137.842 134.054 137.834Z" fill="#222222"/>
</svg>
