<svg width="64" height="64" viewBox="0 0 64 64" fill="none" xmlns="http://www.w3.org/2000/svg">
<path fill-rule="evenodd" clip-rule="evenodd" d="M12.2796 27.6247C15.8985 23.3998 21.9548 22.4868 27.4551 22.5825C32.9752 22.6785 37.8442 24.9336 42.259 28.1464C48.0589 32.3673 57.558 36.3273 56.1541 43.4682C54.7065 50.8313 43.9224 50.816 37.1473 54.1466C33.404 55.9867 30.0206 58.3145 25.8863 58.3475C21.6163 58.3816 17.2883 57.3393 14.3352 54.3286C11.3264 51.2612 10.7025 46.8514 10.3698 42.5287C9.97205 37.3617 8.86072 31.6161 12.2796 27.6247Z" fill="#FFE4B0"/>
<path d="M0.300906 37.074L5.70814 42.344L4.43177 49.7854C4.40044 49.9692 4.42109 50.1581 4.4914 50.3307C4.5617 50.5034 4.67886 50.653 4.82967 50.7626C4.98047 50.8722 5.1589 50.9375 5.34484 50.9511C5.53078 50.9647 5.71682 50.9261 5.88197 50.8396L12.5656 47.3264L19.2491 50.8396C19.4143 50.9261 19.6003 50.9647 19.7863 50.9511C19.9722 50.9375 20.1506 50.8722 20.3014 50.7626C20.4522 50.653 20.5694 50.5034 20.6397 50.3307C20.71 50.1581 20.7307 49.9692 20.6993 49.7854L19.423 42.344L24.8302 37.074C24.9635 36.9436 25.0577 36.7785 25.1022 36.5974C25.1467 36.4163 25.1397 36.2263 25.0821 36.0489C25.0244 35.8716 24.9183 35.7139 24.7758 35.5935C24.6333 35.4732 24.4601 35.3951 24.2756 35.3679L16.8039 34.2825L13.4621 27.512C13.3701 27.3561 13.239 27.2268 13.0818 27.137C12.9246 27.0472 12.7466 27 12.5656 27C12.3845 27 12.2066 27.0472 12.0494 27.137C11.8922 27.2268 11.7611 27.3561 11.6691 27.512L8.32728 34.2825L0.855557 35.3679C0.671039 35.3951 0.497766 35.4732 0.355269 35.5935C0.212771 35.7138 0.106715 35.8716 0.0490535 36.0489C-0.00860836 36.2263 -0.0155831 36.4162 0.0289157 36.5974C0.0734145 36.7785 0.167617 36.9436 0.300906 37.074ZM9.13491 36.1863C9.29542 36.1631 9.44785 36.1011 9.57904 36.0057C9.71022 35.9103 9.81621 35.7845 9.88784 35.6389L12.5656 30.2141L15.2433 35.6389C15.3149 35.7845 15.4209 35.9103 15.5521 36.0057C15.6833 36.1011 15.8357 36.1631 15.9962 36.1863L21.9825 37.0559L17.6505 41.2786C17.5346 41.3919 17.4479 41.5316 17.3979 41.6858C17.3479 41.84 17.3361 42.0041 17.3634 42.1638L18.3859 48.1263L13.0304 45.3113C12.8871 45.2359 12.7275 45.1965 12.5656 45.1965C12.4036 45.1965 12.2441 45.2359 12.1007 45.3113L6.74528 48.1263L7.76774 42.1638C7.79513 42.0041 7.78331 41.84 7.73329 41.6858C7.68328 41.5316 7.59658 41.3919 7.48063 41.2786L3.14863 37.0559L9.13491 36.1863Z" fill="#222222"/>
<path d="M25.3009 21.074L30.7081 26.344L29.4318 33.7854C29.4004 33.9692 29.4211 34.1581 29.4914 34.3307C29.5617 34.5034 29.6789 34.653 29.8297 34.7626C29.9805 34.8722 30.1589 34.9375 30.3448 34.9511C30.5308 34.9647 30.7168 34.9261 30.882 34.8396L37.5656 31.3264L44.2491 34.8396C44.4143 34.9261 44.6003 34.9647 44.7863 34.9511C44.9722 34.9375 45.1506 34.8722 45.3014 34.7626C45.4522 34.653 45.5694 34.5034 45.6397 34.3307C45.71 34.1581 45.7307 33.9692 45.6993 33.7854L44.423 26.344L49.8302 21.074C49.9635 20.9436 50.0577 20.7785 50.1022 20.5974C50.1467 20.4163 50.1397 20.2263 50.0821 20.0489C50.0244 19.8716 49.9183 19.7139 49.7758 19.5935C49.6333 19.4732 49.4601 19.3951 49.2756 19.3679L41.8039 18.2825L38.4621 11.512C38.3701 11.3561 38.239 11.2268 38.0818 11.137C37.9246 11.0472 37.7466 11 37.5656 11C37.3845 11 37.2066 11.0472 37.0494 11.137C36.8922 11.2268 36.7611 11.3561 36.6691 11.512L33.3273 18.2825L25.8556 19.3679C25.671 19.3951 25.4978 19.4732 25.3553 19.5935C25.2128 19.7138 25.1067 19.8716 25.0491 20.0489C24.9914 20.2263 24.9844 20.4162 25.0289 20.5974C25.0734 20.7785 25.1676 20.9436 25.3009 21.074ZM34.1349 20.1863C34.2954 20.1631 34.4479 20.1011 34.579 20.0057C34.7102 19.9103 34.8162 19.7845 34.8878 19.6389L37.5656 14.2141L40.2433 19.6389C40.3149 19.7845 40.4209 19.9103 40.5521 20.0057C40.6833 20.1011 40.8357 20.1631 40.9962 20.1863L46.9825 21.0559L42.6505 25.2786C42.5346 25.3919 42.4479 25.5316 42.3979 25.6858C42.3479 25.84 42.3361 26.0041 42.3634 26.1638L43.3859 32.1263L38.0304 29.3113C37.8871 29.2359 37.7275 29.1965 37.5656 29.1965C37.4036 29.1965 37.2441 29.2359 37.1007 29.3113L31.7453 32.1263L32.7677 26.1638C32.7951 26.0041 32.7833 25.84 32.7333 25.6858C32.6833 25.5316 32.5966 25.3919 32.4806 25.2786L28.1486 21.0559L34.1349 20.1863Z" fill="#222222"/>
</svg>
