<svg width="236" height="284" viewBox="0 0 236 284" fill="none" xmlns="http://www.w3.org/2000/svg">
<path d="M146 90L146 180C143.249 180 140.499 179.867 137.761 179.601L146 90Z" fill="#FFE4B0"/>
<path d="M146 90L137.511 179.366C122.384 177.943 107.863 172.741 95.2958 164.243L146 90Z" fill="#FFC786"/>
<path d="M146 89.6784L95.4178 164.155C58.8065 139.258 45.7267 91.4162 64.5741 51.338L146 89.6784Z" fill="#FFAE4F"/>
<path d="M146.151 90.0106L64.8733 51.695C85.9963 6.72534 139.509 -12.5753 184.398 8.58583C229.287 29.7469 248.553 83.3566 227.43 128.326C212.614 159.868 180.948 180 146.151 180L146.151 90.0106Z" fill="#FF8A00"/>
<path d="M1 148.003L41 113.003" stroke="#FF8A00" stroke-width="3" stroke-linejoin="round" stroke-dasharray="8 8"/>
<path d="M78 231.003L103 184.003" stroke="#FF8A00" stroke-width="3" stroke-linejoin="round" stroke-dasharray="8 8"/>
<path d="M140 194.003L131 283.003" stroke="#FF8A00" stroke-width="3" stroke-linejoin="round" stroke-dasharray="8 8"/>
<path d="M206 172.003L217 200.003" stroke="#FF8A00" stroke-width="3" stroke-linejoin="round" stroke-dasharray="8 8"/>
</svg>
