<svg width="64" height="64" viewBox="0 0 64 64" fill="none" xmlns="http://www.w3.org/2000/svg">
<path d="M44 25C40.2422 25 36.5687 26.1143 33.4442 28.2021C30.3196 30.2898 27.8844 33.2572 26.4463 36.729C25.0082 40.2008 24.632 44.0211 25.3651 47.7067C26.0982 51.3924 27.9078 54.7778 30.565 57.435C33.2222 60.0922 36.6077 61.9018 40.2933 62.6349C43.9789 63.368 47.7992 62.9918 51.271 61.5537C54.7428 60.1156 57.7102 57.6804 59.7979 54.5558C61.8857 51.4313 63 47.7578 63 44C62.9943 38.9626 60.9907 34.1332 57.4287 30.5713C53.8668 27.0093 49.0374 25.0057 44 25ZM44 61C40.6377 61 37.351 60.003 34.5553 58.135C31.7597 56.267 29.5807 53.612 28.2941 50.5056C27.0074 47.3993 26.6707 43.9811 27.3267 40.6835C27.9826 37.3858 29.6017 34.3567 31.9792 31.9792C34.3567 29.6017 37.3858 27.9826 40.6835 27.3267C43.9811 26.6707 47.3993 27.0074 50.5056 28.294C53.612 29.5807 56.267 31.7597 58.135 34.5553C60.003 37.3509 61 40.6377 61 44C60.995 48.5071 59.2023 52.8282 56.0153 56.0153C52.8282 59.2023 48.5071 60.995 44 61Z" fill="#FFE4B0"/>
<path d="M40.5549 38.1865C40.4427 38.6149 40.4489 39.0656 40.5727 39.4908C40.6965 39.9159 40.9334 40.2995 41.258 40.6006C41.7645 40.9814 42.3087 41.3091 42.882 41.5788V35.7031C42.2896 35.8355 41.7508 36.1432 41.3357 36.5862C40.9207 37.0291 40.6486 37.5868 40.5549 38.1865Z" fill="#FFE4B0"/>
<path d="M45.5986 44.835C45.3466 44.746 45.1152 44.6606 44.8818 44.575V52.1427C45.6738 51.9461 46.3908 51.5217 46.9443 50.9221C47.4978 50.3224 47.8634 49.5738 47.9961 48.7686C48.1603 47.932 48.0052 47.0641 47.5615 46.3361C47.1178 45.608 46.4175 45.0725 45.5986 44.835Z" fill="#FFE4B0"/>
<path d="M44 29C41.0333 29 38.1332 29.8797 35.6665 31.528C33.1997 33.1762 31.2771 35.5189 30.1418 38.2598C29.0065 41.0006 28.7094 44.0166 29.2882 46.9264C29.867 49.8361 31.2956 52.5088 33.3934 54.6066C35.4912 56.7044 38.1639 58.133 41.0737 58.7118C43.9834 59.2906 46.9994 58.9935 49.7403 57.8582C52.4811 56.7229 54.8238 54.8003 56.4721 52.3336C58.1203 49.8668 59 46.9667 59 44C58.9957 40.0231 57.4139 36.2103 54.6018 33.3982C51.7897 30.5861 47.9769 29.0043 44 29ZM49.9688 49.0996C49.7634 50.3747 49.1613 51.5527 48.2481 52.466C47.3348 53.3793 46.157 53.9815 44.8818 54.187V56C44.8818 56.2652 44.7765 56.5196 44.589 56.7071C44.4014 56.8946 44.1471 57 43.8818 57C43.6166 57 43.3623 56.8946 43.1747 56.7071C42.9872 56.5196 42.8818 56.2652 42.8818 56V54.2631C41.2687 54.2568 39.6993 53.7379 38.4004 52.7812C38.2905 52.7093 38.1958 52.6164 38.1218 52.5079C38.0478 52.3994 37.9959 52.2773 37.9691 52.1487C37.9149 51.889 37.966 51.6184 38.1113 51.3965C38.2566 51.1745 38.4842 51.0194 38.7438 50.9652C39.0035 50.9109 39.2741 50.9621 39.4961 51.1074C40.4714 51.8454 41.6588 52.2493 42.8818 52.259V43.7848C41.8641 43.3726 40.9034 42.8315 40.0234 42.1748C39.4085 41.6488 38.9496 40.9643 38.6967 40.1957C38.4438 39.427 38.4065 38.6038 38.5889 37.8154C38.7689 36.7545 39.282 35.7784 40.0538 35.0286C40.8256 34.2787 41.8162 33.7941 42.8819 33.6449V32C42.8819 31.7348 42.9872 31.4804 43.1748 31.2929C43.3623 31.1054 43.6167 31 43.8819 31C44.1471 31 44.4014 31.1054 44.589 31.2929C44.7765 31.4804 44.8819 31.7348 44.8819 32V33.5651C46.1712 33.6954 47.3927 34.2057 48.3916 35.0312C48.5872 35.2104 48.7036 35.4598 48.7152 35.7247C48.7268 35.9896 48.6327 36.2483 48.4536 36.4439C48.2745 36.6394 48.0251 36.7558 47.7602 36.7674C47.4952 36.7791 47.2366 36.685 47.041 36.5059C46.4131 36.0184 45.6689 35.7033 44.8818 35.5916V42.4384C45.3077 42.6029 45.7599 42.7717 46.2646 42.9502C47.5314 43.3385 48.6101 44.181 49.2937 45.3159C49.9773 46.4509 50.2177 47.7983 49.9688 49.0996Z" fill="#FFE4B0"/>
<path d="M26 45C25.8687 45 25.7386 45.0258 25.6173 45.076C25.4959 45.1263 25.3857 45.2 25.2928 45.2928C25.2 45.3857 25.1263 45.4959 25.0761 45.6173C25.0258 45.7386 25 45.8687 25 46V52C25 52.2652 25.1054 52.5196 25.2929 52.7071C25.4804 52.8946 25.7348 53 26 53C26.2652 53 26.5196 52.8946 26.7071 52.7071C26.8946 52.5196 27 52.2652 27 52V46C27 45.8687 26.9742 45.7386 26.9239 45.6173C26.8737 45.4959 26.8 45.3857 26.7072 45.2928C26.6143 45.2 26.5041 45.1263 26.3827 45.076C26.2614 45.0258 26.1313 45 26 45Z" fill="#222222"/>
<path d="M34 45C33.8687 45 33.7386 45.0258 33.6173 45.076C33.4959 45.1263 33.3857 45.2 33.2928 45.2928C33.2 45.3857 33.1263 45.4959 33.076 45.6173C33.0258 45.7386 33 45.8687 33 46V49C33 49.2652 33.1054 49.5196 33.2929 49.7071C33.4804 49.8946 33.7348 50 34 50C34.2652 50 34.5196 49.8946 34.7071 49.7071C34.8946 49.5196 35 49.2652 35 49V46C35 45.8687 34.9742 45.7386 34.924 45.6173C34.8737 45.4959 34.8 45.3857 34.7072 45.2928C34.6143 45.2 34.5041 45.1263 34.3827 45.076C34.2614 45.0258 34.1313 45 34 45Z" fill="#222222"/>
<path d="M18 45C17.8687 45 17.7386 45.0258 17.6173 45.076C17.4959 45.1263 17.3857 45.2 17.2928 45.2928C17.2 45.3857 17.1263 45.4959 17.0761 45.6173C17.0258 45.7386 17 45.8687 17 46V49C17 49.2652 17.1054 49.5196 17.2929 49.7071C17.4804 49.8946 17.7348 50 18 50C18.2652 50 18.5196 49.8946 18.7071 49.7071C18.8946 49.5196 19 49.2652 19 49V46C19 45.8687 18.9742 45.7386 18.9239 45.6173C18.8737 45.4959 18.8 45.3857 18.7072 45.2928C18.6143 45.2 18.5041 45.1263 18.3827 45.076C18.2614 45.0258 18.1313 45 18 45Z" fill="#222222"/>
<path d="M26 25C27.1867 25 28.3467 24.6481 29.3334 23.9888C30.3201 23.3295 31.0892 22.3925 31.5433 21.2961C31.9974 20.1997 32.1162 18.9933 31.8847 17.8295C31.6532 16.6656 31.0818 15.5965 30.2426 14.7574C29.4035 13.9182 28.3344 13.3468 27.1705 13.1153C26.0067 12.8838 24.8003 13.0026 23.7039 13.4567C22.6075 13.9109 21.6705 14.6799 21.0112 15.6666C20.3519 16.6533 20 17.8133 20 19C20.0017 20.5908 20.6344 22.1159 21.7593 23.2407C22.8841 24.3656 24.4092 24.9983 26 25ZM26 15C26.7911 15 27.5645 15.2346 28.2223 15.6741C28.8801 16.1136 29.3928 16.7384 29.6955 17.4693C29.9983 18.2002 30.0775 19.0044 29.9231 19.7804C29.7688 20.5563 29.3878 21.269 28.8284 21.8284C28.269 22.3878 27.5563 22.7688 26.7804 22.9231C26.0044 23.0775 25.2002 22.9983 24.4693 22.6955C23.7384 22.3928 23.1136 21.8801 22.6741 21.2223C22.2346 20.5645 22 19.7911 22 19C22.0012 17.9395 22.423 16.9228 23.1729 16.1729C23.9228 15.423 24.9395 15.0012 26 15Z" fill="#222222"/>
<path d="M50.6001 35.2002L38.5399 26.1552C37.4142 16.4575 34.2856 7.11043 26.6094 1.20754C26.455 1.08861 26.2692 1.01743 26.0748 1.00277C25.8805 0.988109 25.6861 1.0306 25.5156 1.12502C18.8062 4.83785 15.0276 14.987 13.5686 26.0737L1.3999 35.2002C1.27569 35.2933 1.17488 35.414 1.10547 35.5529C1.03605 35.6917 0.999942 35.8448 1 36V42C0.999966 42.1313 1.02581 42.2614 1.07605 42.3827C1.12629 42.5041 1.19995 42.6143 1.29282 42.7072C1.38568 42.8001 1.49594 42.8737 1.61728 42.924C1.73862 42.9742 1.86867 43 2 43H50C50.1313 43 50.2614 42.9742 50.3827 42.924C50.5041 42.8737 50.6143 42.8001 50.7072 42.7072C50.8 42.6143 50.8737 42.5041 50.924 42.3827C50.9742 42.2614 51 42.1313 51 42V36C51.0001 35.8448 50.9639 35.6917 50.8945 35.5529C50.8251 35.414 50.7243 35.2933 50.6001 35.2002ZM25.9209 3.21291C35.3334 10.897 37.1168 24.6184 37.0911 37H14.8393C14.7182 18.6957 20.1931 6.91854 25.9209 3.21291ZM3 36.5L13.2571 28.8073C12.8684 32.8592 12.7656 36.9336 12.9495 41H3V36.5ZM14.9478 41C14.9143 40.318 14.9078 39.6658 14.889 39H37.0748C37.0635 39.6709 37.0511 40.3409 37.0317 41H14.9478ZM49 41H39.0316C39.1742 36.9497 39.0979 32.8946 38.803 28.8524L49 36.5V41Z" fill="#222222"/>
</svg>
