<svg width="64" height="64" viewBox="0 0 64 64" fill="none" xmlns="http://www.w3.org/2000/svg">
<path d="M47 24C44.8244 24 42.6977 24.6451 40.8887 25.8538C39.0798 27.0625 37.6699 28.7805 36.8373 30.7905C36.0048 32.8005 35.7869 35.0122 36.2114 37.146C36.6358 39.2798 37.6835 41.2398 39.2218 42.7782C40.7602 44.3166 42.7202 45.3642 44.854 45.7886C46.9878 46.2131 49.1995 45.9952 51.2095 45.1627C53.2195 44.3301 54.9375 42.9202 56.1462 41.1113C57.3549 39.3023 58 37.1756 58 35C57.9967 32.0836 56.8367 29.2877 54.7745 27.2255C52.7124 25.1633 49.9164 24.0033 47 24ZM41 30H53C53.2652 30 53.5196 30.1054 53.7071 30.2929C53.8946 30.4804 54 30.7348 54 31C54 31.2652 53.8946 31.5196 53.7071 31.7071C53.5196 31.8946 53.2652 32 53 32H41C40.7348 32 40.4804 31.8946 40.2929 31.7071C40.1054 31.5196 40 31.2652 40 31C40 30.7348 40.1054 30.4804 40.2929 30.2929C40.4804 30.1054 40.7348 30 41 30ZM53 40H41C40.7348 40 40.4804 39.8946 40.2929 39.7071C40.1054 39.5196 40 39.2652 40 39C40 38.7348 40.1054 38.4804 40.2929 38.2929C40.4804 38.1054 40.7348 38 41 38H53C53.2652 38 53.5196 38.1054 53.7071 38.2929C53.8946 38.4804 54 38.7348 54 39C54 39.2652 53.8946 39.5196 53.7071 39.7071C53.5196 39.8946 53.2652 40 53 40ZM56 35C56 35.2652 55.8946 35.5196 55.7071 35.7071C55.5196 35.8946 55.2652 36 55 36H39C38.7348 36 38.4804 35.8946 38.2929 35.7071C38.1054 35.5196 38 35.2652 38 35C38 34.7348 38.1054 34.4804 38.2929 34.2929C38.4804 34.1054 38.7348 34 39 34H55C55.2652 34 55.5196 34.1054 55.7071 34.2929C55.8946 34.4804 56 34.7348 56 35Z" fill="#FFE4B0"/>
<path d="M47 19C43.1067 18.9975 39.3462 20.4156 36.4239 22.9882C33.5017 25.5609 31.6185 29.1114 31.1276 32.9737C30.6368 36.836 31.572 40.7446 33.7578 43.9665C35.9436 47.1884 39.2298 49.502 43 50.4735V59C43 60.0609 43.4214 61.0783 44.1716 61.8284C44.9217 62.5786 45.9392 63 47 63C48.0609 63 49.0783 62.5786 49.8284 61.8284C50.5786 61.0783 51 60.0609 51 59V50.4735C54.7702 49.502 58.0565 47.1884 60.2423 43.9665C62.4281 40.7446 63.3633 36.836 62.8724 32.9737C62.3816 29.1114 60.4984 25.5609 57.5761 22.9882C54.6539 20.4156 50.8934 18.9975 47 19ZM49 52.5H45V50.8612C46.3269 51.0463 47.6731 51.0463 49 50.8612V52.5ZM47 48C44.4289 48 41.9154 47.2376 39.7776 45.8091C37.6398 44.3806 35.9735 42.3503 34.9896 39.9749C34.0056 37.5994 33.7482 34.9856 34.2498 32.4638C34.7514 29.9421 35.9896 27.6257 37.8076 25.8076C39.6257 23.9895 41.9421 22.7514 44.4638 22.2498C46.9856 21.7482 49.5995 22.0056 51.9749 22.9896C54.3503 23.9735 56.3807 25.6398 57.8091 27.7776C59.2376 29.9154 60 32.4288 60 35C59.9962 38.4466 58.6253 41.751 56.1882 44.1882C53.751 46.6253 50.4467 47.9962 47 48Z" fill="#FFE4B0"/>
<path d="M36 61V51C36 50.4696 35.7893 49.9609 35.4142 49.5858C35.0391 49.2107 34.5304 49 34 49H21C20.4696 49 19.9609 49.2107 19.5858 49.5858C19.2107 49.9609 19 50.4696 19 51V58.3997L24.3862 54.2104C24.5786 54.0608 24.819 53.9866 25.0622 54.0018C25.3055 54.017 25.5348 54.1205 25.707 54.293L28 56.5859L31.293 53.2929C31.4809 53.1074 31.7346 53.0037 31.9987 53.0045C32.2628 53.0054 32.5159 53.1107 32.7026 53.2974C32.8893 53.4842 32.9946 53.7372 32.9954 54.0013C32.9963 54.2654 32.8926 54.5191 32.707 54.707L28.707 58.707C28.6142 58.7999 28.5039 58.8736 28.3826 58.9238C28.2613 58.9741 28.1313 59 28 59C27.8687 59 27.7386 58.9741 27.6173 58.9238C27.496 58.8736 27.3858 58.7999 27.2929 58.707L24.9169 56.3315L19 60.9336V61C19 61.5304 19.2107 62.0391 19.5858 62.4142C19.9609 62.7893 20.4696 63 21 63H34C34.5304 63 35.0391 62.7893 35.4142 62.4142C35.7893 62.0391 36 61.5304 36 61Z" fill="#FFE4B0"/>
<path d="M48 1H4C3.20462 1.00087 2.44206 1.31722 1.87964 1.87964C1.31722 2.44206 1.00087 3.20462 1 4V32C1.00077 32.2652 1.10616 32.5194 1.29327 32.7073L10.2927 41.7067C10.4806 41.8938 10.7348 41.9992 11 42H48C48.7954 41.9991 49.5579 41.6828 50.1204 41.1204C50.6828 40.5579 50.9991 39.7954 51 39V4C50.9991 3.20462 50.6828 2.44206 50.1204 1.87964C49.5579 1.31722 48.7954 1.00087 48 1ZM10 38.5859L4.41406 33H9C9.26511 33.0003 9.51927 33.1058 9.70673 33.2933C9.89419 33.4807 9.99966 33.7349 10 34V38.5859ZM49 39C48.9997 39.2651 48.8942 39.5193 48.7067 39.7067C48.5193 39.8942 48.2651 39.9997 48 40H12V34C11.9991 33.2046 11.6828 32.4421 11.1204 31.8796C10.5579 31.3172 9.79538 31.0009 9 31H3V4C3.00034 3.73489 3.10581 3.48074 3.29327 3.29327C3.48074 3.10581 3.73489 3.00034 4 3H48C48.2651 3.00034 48.5193 3.10581 48.7067 3.29327C48.8942 3.48074 48.9997 3.73489 49 4V39Z" fill="#222222"/>
<path d="M27 17C27 15.0222 26.4135 13.0888 25.3147 11.4443C24.2159 9.79981 22.6541 8.51809 20.8268 7.76121C18.9996 7.00433 16.9889 6.8063 15.0491 7.19215C13.1093 7.578 11.3275 8.53041 9.92894 9.92894C8.53041 11.3275 7.578 13.1093 7.19215 15.0491C6.8063 16.9889 7.00433 18.9996 7.76121 20.8268C8.51809 22.6541 9.79981 24.2159 11.4443 25.3147C13.0888 26.4135 15.0222 27 17 27C19.6513 26.9971 22.1931 25.9425 24.0678 24.0678C25.9425 22.1931 26.9971 19.6513 27 17ZM17 25C15.2248 24.9997 13.5007 24.4054 12.1024 23.3117L17.4141 18H24.9305C24.6857 19.9315 23.7455 21.7076 22.2858 22.996C20.8261 24.2845 18.947 24.9969 17 25ZM16 14.5859L12.1024 10.6884C13.2321 9.80749 14.5787 9.24816 16 9.06946V14.5859ZM24.9305 16H18V9.06946C19.7597 9.29373 21.3952 10.096 22.6496 11.3504C23.904 12.6048 24.7063 14.2403 24.9305 16ZM9 17C9.00027 15.2248 9.59462 13.5007 10.6884 12.1024L15.5859 17L10.6884 21.8976C9.59462 20.4993 9.00027 18.7752 9 17Z" fill="#222222"/>
<path d="M44 10H32C31.7348 10 31.4804 10.1054 31.2929 10.2929C31.1054 10.4804 31 10.7348 31 11C31 11.2652 31.1054 11.5196 31.2929 11.7071C31.4804 11.8946 31.7348 12 32 12H44C44.2652 12 44.5196 11.8946 44.7071 11.7071C44.8946 11.5196 45 11.2652 45 11C45 10.7348 44.8946 10.4804 44.7071 10.2929C44.5196 10.1054 44.2652 10 44 10Z" fill="#222222"/>
<path d="M44 16H32C31.7348 16 31.4804 16.1054 31.2929 16.2929C31.1054 16.4804 31 16.7348 31 17C31 17.2652 31.1054 17.5196 31.2929 17.7071C31.4804 17.8946 31.7348 18 32 18H44C44.2652 18 44.5196 17.8946 44.7071 17.7071C44.8946 17.5196 45 17.2652 45 17C45 16.7348 44.8946 16.4804 44.7071 16.2929C44.5196 16.1054 44.2652 16 44 16Z" fill="#222222"/>
<path d="M44 22H32C31.7348 22 31.4804 22.1054 31.2929 22.2929C31.1054 22.4804 31 22.7348 31 23C31 23.2652 31.1054 23.5196 31.2929 23.7071C31.4804 23.8946 31.7348 24 32 24H44C44.2652 24 44.5196 23.8946 44.7071 23.7071C44.8946 23.5196 45 23.2652 45 23C45 22.7348 44.8946 22.4804 44.7071 22.2929C44.5196 22.1054 44.2652 22 44 22Z" fill="#222222"/>
<path d="M44 31H17C16.7348 31 16.4804 31.1054 16.2929 31.2929C16.1054 31.4804 16 31.7348 16 32C16 32.2652 16.1054 32.5196 16.2929 32.7071C16.4804 32.8946 16.7348 33 17 33H44C44.2652 33 44.5196 32.8946 44.7071 32.7071C44.8946 32.5196 45 32.2652 45 32C45 31.7348 44.8946 31.4804 44.7071 31.2929C44.5196 31.1054 44.2652 31 44 31Z" fill="#222222"/>
<path d="M44 35H17C16.7348 35 16.4804 35.1054 16.2929 35.2929C16.1054 35.4804 16 35.7348 16 36C16 36.2652 16.1054 36.5196 16.2929 36.7071C16.4804 36.8946 16.7348 37 17 37H44C44.2652 37 44.5196 36.8946 44.7071 36.7071C44.8946 36.5196 45 36.2652 45 36C45 35.7348 44.8946 35.4804 44.7071 35.2929C44.5196 35.1054 44.2652 35 44 35Z" fill="#222222"/>
</svg>
