<svg width="64" height="64" viewBox="0 0 64 64" fill="none" xmlns="http://www.w3.org/2000/svg">
<path d="M30 58.5C30.1313 58.5001 30.2614 58.4743 30.3828 58.424C30.5041 58.3738 30.6144 58.3001 30.7073 58.2073C30.8001 58.1144 30.8738 58.0041 30.924 57.8828C30.9743 57.7614 31.0001 57.6313 31 57.5V53.5C31 53.2348 30.8946 52.9804 30.7071 52.7929C30.5196 52.6054 30.2652 52.5 30 52.5C29.7348 52.5 29.4804 52.6054 29.2929 52.7929C29.1054 52.9804 29 53.2348 29 53.5V57.5C28.9999 57.6313 29.0257 57.7614 29.076 57.8828C29.1262 58.0041 29.1999 58.1144 29.2927 58.2073C29.3856 58.3001 29.4959 58.3738 29.6172 58.424C29.7386 58.4743 29.8687 58.5001 30 58.5Z" fill="#FFE4B0"/>
<path d="M60 40.5H51.17L52.02 34.96C52.3297 32.9876 51.8882 30.9707 50.7828 29.308C49.6775 27.6453 47.9886 26.4578 46.05 25.98C45.6852 25.8893 45.3058 25.8734 44.9346 25.9333C44.5635 25.9932 44.2084 26.1276 43.8906 26.3286C43.5729 26.5295 43.2991 26.7927 43.0859 27.1023C42.8727 27.4119 42.7244 27.7615 42.65 28.13L40.82 37.28C40.639 38.1869 40.1497 39.0032 39.4351 39.5901C38.7205 40.1771 37.8248 40.4986 36.9 40.5H28C27.2051 40.5023 26.4433 40.8192 25.8812 41.3813C25.3191 41.9434 25.0023 42.7051 25 43.5V59.5C25.0023 60.295 25.3191 61.0567 25.8813 61.6188C26.4434 62.1809 27.2051 62.4977 28 62.5H32C32.6392 62.4983 33.2611 62.2928 33.7755 61.9133C34.2898 61.5338 34.6697 61.0002 34.86 60.39L36.87 61.9C37.3884 62.2912 38.0206 62.5019 38.67 62.5H54.65C55.541 62.4983 56.4155 62.2593 57.1835 61.8077C57.9516 61.356 58.5854 60.7079 59.02 59.93L62.37 53.89C62.7821 53.1463 62.9988 52.3103 63 51.46V43.5C62.9977 42.7051 62.6809 41.9434 62.1188 41.3813C61.5567 40.8192 60.7949 40.5023 60 40.5ZM33 59.5C32.9992 59.765 32.8936 60.0189 32.7062 60.2063C32.5189 60.3936 32.265 60.4992 32 60.5H28C27.735 60.4992 27.4811 60.3936 27.2938 60.2063C27.1064 60.0189 27.0008 59.765 27 59.5V43.5C27.0008 43.235 27.1064 42.9812 27.2938 42.7938C27.4811 42.6064 27.735 42.5008 28 42.5H33V59.5Z" fill="#FFE4B0"/>
<path d="M49.3711 25.4197C50.0942 24.7002 50.6041 23.7948 50.8446 22.8035C51.0851 21.8122 51.0468 20.7738 50.7339 19.8029C50.421 18.8321 49.8457 17.9667 49.0716 17.3025C48.2975 16.6382 47.3548 16.201 46.3477 16.0392L37.4374 14.717C36.8821 14.6323 36.356 14.4131 35.9049 14.0784C35.4538 13.7437 35.0914 13.3037 34.8494 12.7968L30.8846 4.58684C30.4457 3.66312 29.754 2.88278 28.8895 2.3364C28.025 1.79002 27.0234 1.5 26.0007 1.5C24.9781 1.5 23.9764 1.79002 23.1119 2.3364C22.2475 2.88278 21.5557 3.66312 21.1169 4.58684L17.152 12.7968C16.91 13.3037 16.5476 13.7437 16.0966 14.0784C15.6455 14.4131 15.1193 14.6323 14.5641 14.717L5.65382 16.0392C4.64664 16.2009 3.70382 16.638 2.92963 17.3023C2.15544 17.9665 1.58006 18.8319 1.26713 19.8028C0.954197 20.7737 0.915908 21.8122 1.1565 22.8035C1.39709 23.7948 1.90718 24.7003 2.63035 25.4197L9.11186 31.876C9.51156 32.2761 9.8096 32.766 9.98103 33.305C10.1525 33.8439 10.1923 34.416 10.0972 34.9735L8.57182 44.0614C8.39187 45.0666 8.49766 46.1021 8.87715 47.0502C9.25664 47.9983 9.8946 48.8209 10.7185 49.4243C11.5423 50.0277 12.519 50.3878 13.5374 50.4636C14.5558 50.5394 15.575 50.3279 16.4791 49.8531L24.3991 45.5978C24.8913 45.3325 25.4417 45.1937 26.0008 45.1939C26.56 45.1941 27.1103 45.3332 27.6023 45.5988L35.5223 49.8521C36.4262 50.328 37.4457 50.5404 38.4644 50.4651C39.4832 50.3898 40.4603 50.0299 41.2845 49.4263C42.1087 48.8228 42.7468 47.9998 43.126 47.0513C43.5053 46.1027 43.6105 45.0667 43.4296 44.0613L41.9042 34.9734C41.8091 34.4158 41.8491 33.8434 42.0207 33.3043C42.1923 32.7652 42.4906 32.2751 42.8905 31.875L49.3711 25.4197ZM41.4813 30.453C40.8544 31.0795 40.3865 31.847 40.1169 32.6913C39.8473 33.5356 39.7837 34.4323 39.9315 35.3062L41.4569 44.3941C41.5765 45.0306 41.5145 45.688 41.2779 46.2909C41.0412 46.8938 40.6396 47.4179 40.1189 47.8031C39.5982 48.1883 38.9796 48.4191 38.3339 48.4691C37.6881 48.5191 37.0413 48.3862 36.4676 48.0856L28.5476 43.8323C27.765 43.4106 26.8899 43.1897 26.0008 43.1896C25.1118 43.1894 24.2366 43.4099 23.4538 43.8313L15.5338 48.0866C14.96 48.3872 14.3131 48.5201 13.6673 48.4701C13.0214 48.4201 12.4027 48.1892 11.882 47.8038C11.3613 47.4185 10.9597 46.8942 10.7232 46.2912C10.4866 45.6881 10.4247 45.0307 10.5445 44.3941L12.0699 35.3062C12.2178 34.4325 12.1543 33.5361 11.8848 32.6919C11.6154 31.8478 11.1477 31.0804 10.5211 30.454L4.04052 23.9987C3.57923 23.542 3.25315 22.9666 3.09833 22.3363C2.94351 21.7059 2.96596 21.0449 3.16321 20.4265C3.36046 19.8081 3.72483 19.2562 4.21606 18.8319C4.70729 18.4075 5.30626 18.1272 5.94679 18.022L14.857 16.6998C15.7351 16.5671 16.5673 16.2216 17.2812 15.6935C17.9951 15.1654 18.569 14.4706 18.9528 13.6699L22.9177 5.45986C23.1924 4.87419 23.6283 4.37889 24.1743 4.03194C24.7203 3.68498 25.3538 3.50072 26.0007 3.50072C26.6476 3.50072 27.2811 3.68498 27.8271 4.03194C28.3731 4.37889 28.809 4.87419 29.0838 5.45986L33.0486 13.6699C33.4324 14.4706 34.0063 15.1654 34.7202 15.6935C35.4341 16.2216 36.2663 16.5671 37.1444 16.6998L46.0546 18.022C46.6952 18.1272 47.2941 18.4075 47.7854 18.8319C48.2766 19.2562 48.641 19.8081 48.8382 20.4265C49.0355 21.045 49.0579 21.7059 48.9031 22.3363C48.7483 22.9667 48.4222 23.542 47.9609 23.9987L41.4813 30.453Z" fill="#222222"/>
<path d="M26.0004 16.5315C23.8192 16.5268 21.6855 17.1693 19.8696 18.3778C18.0536 19.5863 16.637 21.3063 15.799 23.3202C14.9611 25.3341 14.7394 27.5514 15.1621 29.6913C15.5848 31.8313 16.6328 33.7977 18.1736 35.3418C19.7143 36.8858 21.6785 37.9381 23.8176 38.3653C25.9566 38.7926 28.1743 38.5757 30.19 37.742C32.2057 36.9083 33.9288 35.4954 35.1411 33.6821C36.3534 31.8687 37.0006 29.7364 37.0006 27.5552C37.0004 24.6356 35.8421 21.8354 33.7799 19.7687C31.7177 17.7021 28.92 16.5379 26.0004 16.5315ZM26.0004 36.5745C24.2158 36.5783 22.4701 36.0526 20.9843 35.0639C19.4985 34.0751 18.3395 32.6678 17.6538 31.0201C16.9682 29.3723 16.7869 27.5582 17.1327 25.8074C17.4785 24.0565 18.336 22.4476 19.5966 21.1843C20.8573 19.921 22.4643 19.06 24.2144 18.7104C25.9646 18.3609 27.7791 18.5384 29.4283 19.2204C31.0775 19.9025 32.4872 21.0586 33.4792 22.5422C34.4711 24.0259 35.0006 25.7705 35.0005 27.5552C35.0005 29.9439 34.0529 32.235 32.3656 33.9259C30.6783 35.6168 28.3892 36.5694 26.0004 36.5745Z" fill="#222222"/>
<path d="M29.1871 22.9642L24.7495 29.1895L22.5552 27.7235C22.4457 27.6507 22.3229 27.6001 22.1939 27.5747C22.0648 27.5493 21.9321 27.5496 21.8031 27.5755C21.6742 27.6014 21.5516 27.6525 21.4424 27.7258C21.3332 27.7991 21.2395 27.8932 21.1667 28.0027C21.0938 28.1122 21.0433 28.2349 21.0179 28.364C20.9925 28.493 20.9927 28.6258 21.0187 28.7547C21.0446 28.8837 21.0956 29.0062 21.1689 29.1154C21.2422 29.2246 21.3363 29.3183 21.4458 29.3912L24.4458 31.3955C24.6618 31.5397 24.9255 31.5942 25.1809 31.5472C25.4364 31.5003 25.6634 31.3556 25.814 31.144L30.814 24.1289C30.8905 24.022 30.9451 23.9012 30.9749 23.7732C31.0047 23.6453 31.0089 23.5127 30.9875 23.3831C30.966 23.2535 30.9192 23.1294 30.8498 23.0178C30.7803 22.9063 30.6896 22.8095 30.5828 22.7331C30.476 22.6566 30.3551 22.6019 30.2272 22.5722C30.0992 22.5424 29.9666 22.5381 29.837 22.5596C29.7074 22.5811 29.5833 22.6278 29.4717 22.6973C29.3602 22.7667 29.2635 22.8574 29.187 22.9643L29.1871 22.9642Z" fill="#222222"/>
</svg>
