<svg width="64" height="64" viewBox="0 0 64 64" fill="none" xmlns="http://www.w3.org/2000/svg">
<path d="M44 43C47.3137 43 50 40.3137 50 37C50 33.6863 47.3137 31 44 31C40.6863 31 38 33.6863 38 37C38 40.3137 40.6863 43 44 43Z" fill="#FFE4B0"/>
<path d="M44 25C40.2422 25 36.5687 26.1143 33.4442 28.2021C30.3196 30.2898 27.8844 33.2572 26.4463 36.729C25.0082 40.2008 24.632 44.0211 25.3651 47.7067C26.0982 51.3924 27.9078 54.7778 30.565 57.435C33.2222 60.0922 36.6077 61.9018 40.2933 62.6349C43.9789 63.368 47.7992 62.9918 51.271 61.5537C54.7428 60.1156 57.7102 57.6804 59.7979 54.5558C61.8857 51.4313 63 47.7578 63 44C62.9943 38.9626 60.9907 34.1332 57.4287 30.5713C53.8668 27.0093 49.0374 25.0057 44 25ZM56 57C55.8687 57 55.7386 56.9742 55.6173 56.924C55.4959 56.8737 55.3857 56.8 55.2928 56.7072C55.2 56.6143 55.1263 56.5041 55.0761 56.3827C55.0258 56.2614 55 56.1313 55 56C55 53.0826 53.8411 50.2847 51.7782 48.2218C49.7153 46.1589 46.9174 45 44 45C41.0826 45 38.2847 46.1589 36.2218 48.2218C34.1589 50.2847 33 53.0826 33 56C33 56.2652 32.8947 56.5196 32.7071 56.7071C32.5196 56.8946 32.2652 57 32 57C31.7348 57 31.4804 56.8946 31.2929 56.7071C31.1054 56.5196 31 56.2652 31 56C31.0047 53.3064 31.8452 50.6807 33.4055 48.485C34.9659 46.2894 37.1692 44.6322 39.7114 43.742C38.2492 42.8134 37.1278 41.4353 36.5158 39.8148C35.9039 38.1943 35.8345 36.4189 36.318 34.7556C36.8015 33.0922 37.8118 31.6307 39.1971 30.5908C40.5824 29.5508 42.2678 28.9886 44 28.9886C45.7322 28.9886 47.4176 29.5508 48.8029 30.5908C50.1882 31.6307 51.1985 33.0922 51.682 34.7556C52.1655 36.4189 52.0961 38.1943 51.4842 39.8148C50.8722 41.4353 49.7509 42.8134 48.2886 43.742C50.8308 44.6322 53.0341 46.2894 54.5945 48.485C56.1549 50.6807 56.9954 53.3064 57 56C57 56.1313 56.9742 56.2614 56.924 56.3827C56.8737 56.5041 56.8001 56.6143 56.7072 56.7072C56.6143 56.8 56.5041 56.8737 56.3827 56.924C56.2614 56.9742 56.1313 57 56 57ZM60 43C60 43.1313 59.9742 43.2614 59.924 43.3827C59.8737 43.5041 59.8001 43.6143 59.7072 43.7072C59.6143 43.8 59.5041 43.8737 59.3827 43.924C59.2614 43.9742 59.1313 44 59 44H57V46C57 46.2652 56.8947 46.5196 56.7071 46.7071C56.5196 46.8946 56.2652 47 56 47C55.7348 47 55.4804 46.8946 55.2929 46.7071C55.1054 46.5196 55 46.2652 55 46V44H53C52.7348 44 52.4804 43.8946 52.2929 43.7071C52.1054 43.5196 52 43.2652 52 43C52 42.7348 52.1054 42.4804 52.2929 42.2929C52.4804 42.1054 52.7348 42 53 42H55V40C55 39.7348 55.1054 39.4804 55.2929 39.2929C55.4804 39.1054 55.7348 39 56 39C56.2652 39 56.5196 39.1054 56.7071 39.2929C56.8947 39.4804 57 39.7348 57 40V42H59C59.1313 42 59.2614 42.0258 59.3827 42.076C59.5041 42.1263 59.6143 42.2 59.7072 42.2928C59.8001 42.3857 59.8737 42.4959 59.924 42.6173C59.9742 42.7386 60 42.8687 60 43Z" fill="#FFE4B0"/>
<path d="M42.293 10.8789C42.0151 10.5994 41.6845 10.3777 41.3203 10.2269C40.9561 10.076 40.5656 9.99889 40.1714 10H11.8286C11.4344 9.9989 11.0439 10.076 10.6798 10.2269C10.3156 10.3777 9.98496 10.5994 9.70704 10.8789L1.87892 18.707C1.59937 18.9849 1.37774 19.3156 1.22687 19.6797C1.076 20.0439 0.998895 20.4344 1.00001 20.8286V23.1465C1.00076 23.5511 1.08298 23.9514 1.24179 24.3235C1.40059 24.6957 1.63272 25.032 1.92433 25.3125L23.9243 46.3955C24.4819 46.9324 25.2259 47.2324 26 47.2324C26.7741 47.2324 27.5181 46.9324 28.0757 46.3955L50.0757 25.3125C50.3672 25.032 50.5993 24.6956 50.7581 24.3235C50.9169 23.9514 50.9992 23.5511 51 23.1465V20.8286C51.0011 20.4344 50.924 20.0439 50.7731 19.6798C50.6223 19.3156 50.4007 18.985 50.1211 18.707L42.293 10.8789ZM49 21H36.9206L42.1357 13.5498L48.707 20.1211C48.8171 20.2373 48.9003 20.3762 48.9509 20.5281C49.0016 20.6799 49.0183 20.841 49 21ZM26 43.1524L18.4432 23H33.5568L26 43.1524ZM19.1102 21L26 12.5791L32.8898 21H19.1102ZM40.6716 12.1541L34.938 20.3447L28.1103 12H40.1714C40.349 12.005 40.5219 12.0583 40.6716 12.1541ZM23.8897 12L17.062 20.3447L11.3284 12.1541C11.4781 12.0583 11.651 12.005 11.8286 12H23.8897ZM3.29301 20.1211L9.86427 13.5498L15.0794 21H3.00001C2.98213 20.841 2.99907 20.6801 3.04967 20.5283C3.10027 20.3765 3.18331 20.2376 3.29301 20.1211ZM3.30815 23.8682C3.1955 23.7555 3.10938 23.6191 3.05608 23.4689C3.00278 23.3187 2.98362 23.1585 3.00001 23H16.3068L24.1071 43.8012L3.30815 23.8682ZM48.6919 23.8682L27.893 43.8012L35.6932 23H49C49.0163 23.1585 48.9971 23.3187 48.9438 23.4688C48.8905 23.619 48.8045 23.7554 48.6919 23.8682H48.6919Z" fill="#222222"/>
<path d="M5 1C4.73478 1 4.48043 1.10536 4.29289 1.29289C4.10536 1.48043 4 1.73478 4 2V4H2C1.73478 4 1.48043 4.10536 1.29289 4.29289C1.10536 4.48043 1 4.73478 1 5C1 5.26522 1.10536 5.51957 1.29289 5.70711C1.48043 5.89464 1.73478 6 2 6H4V8C4 8.26522 4.10536 8.51957 4.29289 8.70711C4.48043 8.89464 4.73478 9 5 9C5.26522 9 5.51957 8.89464 5.70711 8.70711C5.89464 8.51957 6 8.26522 6 8V6H8C8.26522 6 8.51957 5.89464 8.70711 5.70711C8.89464 5.51957 9 5.26522 9 5C9 4.73478 8.89464 4.48043 8.70711 4.29289C8.51957 4.10536 8.26522 4 8 4H6V2C6 1.73478 5.89464 1.48043 5.70711 1.29289C5.51957 1.10536 5.26522 1 5 1Z" fill="#222222"/>
<path d="M50 7H48V5C48 4.73478 47.8946 4.48043 47.7071 4.29289C47.5196 4.10536 47.2652 4 47 4C46.7348 4 46.4804 4.10536 46.2929 4.29289C46.1054 4.48043 46 4.73478 46 5V7H44C43.7348 7 43.4804 7.10536 43.2929 7.29289C43.1054 7.48043 43 7.73478 43 8C43 8.26522 43.1054 8.51957 43.2929 8.70711C43.4804 8.89464 43.7348 9 44 9H46V11C46 11.2652 46.1054 11.5196 46.2929 11.7071C46.4804 11.8946 46.7348 12 47 12C47.2652 12 47.5196 11.8946 47.7071 11.7071C47.8946 11.5196 48 11.2652 48 11V9H50C50.2652 9 50.5196 8.89464 50.7071 8.70711C50.8946 8.51957 51 8.26522 51 8C51 7.73478 50.8946 7.48043 50.7071 7.29289C50.5196 7.10536 50.2652 7 50 7Z" fill="#222222"/>
<path d="M8 37C7.86867 37 7.73862 37.0258 7.61728 37.076C7.49594 37.1263 7.38568 37.2 7.29282 37.2928C7.19995 37.3857 7.12629 37.4959 7.07605 37.6173C7.02581 37.7386 6.99997 37.8687 7 38V40H5C4.73478 40 4.48043 40.1054 4.29289 40.2929C4.10536 40.4804 4 40.7348 4 41C4 41.2652 4.10536 41.5196 4.29289 41.7071C4.48043 41.8946 4.73478 42 5 42H7V44C7 44.2652 7.10536 44.5196 7.29289 44.7071C7.48043 44.8946 7.73478 45 8 45C8.26522 45 8.51957 44.8946 8.70711 44.7071C8.89464 44.5196 9 44.2652 9 44V42H11C11.2652 42 11.5196 41.8946 11.7071 41.7071C11.8946 41.5196 12 41.2652 12 41C12 40.7348 11.8946 40.4804 11.7071 40.2929C11.5196 40.1054 11.2652 40 11 40H9V38C9.00003 37.8687 8.97419 37.7386 8.92395 37.6173C8.87371 37.4959 8.80005 37.3857 8.70718 37.2928C8.61432 37.2 8.50407 37.1263 8.38272 37.076C8.26138 37.0258 8.13133 37 8 37Z" fill="#222222"/>
</svg>
