<svg width="64" height="64" viewBox="0 0 64 64" fill="none" xmlns="http://www.w3.org/2000/svg">
<path d="M44.5 55C46.4778 55 48.4112 54.4135 50.0557 53.3147C51.7002 52.2159 52.9819 50.6541 53.7388 48.8268C54.4957 46.9996 54.6937 44.9889 54.3079 43.0491C53.922 41.1093 52.9696 39.3275 51.5711 37.9289C50.1725 36.5304 48.3907 35.578 46.4509 35.1922C44.5111 34.8063 42.5004 35.0043 40.6732 35.7612C38.8459 36.5181 37.2841 37.7998 36.1853 39.4443C35.0865 41.0888 34.5 43.0222 34.5 45C34.503 47.6512 35.5576 50.193 37.4323 52.0677C39.307 53.9424 41.8488 54.997 44.5 55ZM39.7129 44.127C39.9446 43.9984 40.2177 43.9667 40.4726 44.0388C40.7276 44.1109 40.9437 44.2809 41.0737 44.5118L42.6841 47.3878L49.1094 41.2755C49.3016 41.0926 49.5585 40.9936 49.8237 41.0002C50.0889 41.0068 50.3406 41.1184 50.5234 41.3106C50.7063 41.5028 50.8053 41.7598 50.7987 42.0249C50.7921 42.2901 50.6805 42.5418 50.4883 42.7247L43.1299 49.7247C43.0194 49.8297 42.8864 49.908 42.741 49.9538C42.5957 49.9995 42.4418 50.0114 42.2911 49.9886C42.1404 49.9658 41.9969 49.9089 41.8716 49.8222C41.7462 49.7355 41.6424 49.6213 41.5679 49.4884L39.3286 45.4884C39.1991 45.2569 39.1668 44.9834 39.2389 44.7281C39.311 44.4728 39.4815 44.2566 39.7129 44.127Z" fill="#FFE4B0"/>
<path d="M30.5 59H58.5V31H30.5V59ZM44.5 33C46.8734 33 49.1935 33.7038 51.1668 35.0224C53.1402 36.3409 54.6783 38.2151 55.5866 40.4078C56.4948 42.6005 56.7324 45.0133 56.2694 47.3411C55.8064 49.6689 54.6635 51.8071 52.9853 53.4853C51.3071 55.1635 49.1689 56.3064 46.8411 56.7694C44.5133 57.2324 42.1005 56.9948 39.9078 56.0866C37.7151 55.1783 35.8409 53.6402 34.5224 51.6668C33.2038 49.6935 32.5 47.3734 32.5 45C32.5036 41.8185 33.769 38.7683 36.0186 36.5186C38.2683 34.269 41.3185 33.0036 44.5 33Z" fill="#FFE4B0"/>
<path d="M60.5 27H28.5C27.9698 27.0006 27.4614 27.2115 27.0865 27.5865C26.7115 27.9614 26.5006 28.4698 26.5 29V61C26.5006 61.5302 26.7115 62.0386 27.0865 62.4135C27.4614 62.7885 27.9698 62.9994 28.5 63H60.5C61.0302 62.9994 61.5386 62.7885 61.9135 62.4135C62.2885 62.0386 62.4994 61.5302 62.5 61V29C62.4994 28.4698 62.2885 27.9614 61.9135 27.5865C61.5386 27.2115 61.0302 27.0006 60.5 27ZM60.5 60C60.5 60.1313 60.4742 60.2614 60.424 60.3827C60.3737 60.5041 60.3 60.6143 60.2072 60.7072C60.1143 60.8 60.0041 60.8737 59.8827 60.924C59.7614 60.9742 59.6313 61 59.5 61H29.5C29.3687 61 29.2386 60.9742 29.1173 60.924C28.9959 60.8737 28.8857 60.8 28.7928 60.7072C28.7 60.6143 28.6263 60.5041 28.5761 60.3827C28.5258 60.2614 28.5 60.1313 28.5 60V30C28.5 29.8687 28.5258 29.7386 28.5761 29.6173C28.6263 29.4959 28.7 29.3857 28.7928 29.2928C28.8857 29.2 28.9959 29.1263 29.1173 29.0761C29.2386 29.0258 29.3687 29 29.5 29H59.5C59.6313 29 59.7614 29.0258 59.8827 29.0761C60.0041 29.1263 60.1143 29.2 60.2072 29.2928C60.3 29.3857 60.3737 29.4959 60.424 29.6173C60.4742 29.7386 60.5 29.8687 60.5 30V60Z" fill="#FFE4B0"/>
<path d="M50.5 4H43.5V2C43.5 1.86867 43.4742 1.73862 43.424 1.61728C43.3737 1.49594 43.3 1.38568 43.2072 1.29282C43.1143 1.19995 43.0041 1.12629 42.8827 1.07605C42.7614 1.02581 42.6313 0.999966 42.5 1H10.5C10.3687 0.999966 10.2386 1.02581 10.1173 1.07605C9.99594 1.12629 9.88568 1.19995 9.79282 1.29282C9.69995 1.38568 9.62629 1.49594 9.57605 1.61728C9.52581 1.73862 9.49997 1.86867 9.5 2V4H2.5C2.36867 3.99997 2.23862 4.02581 2.11728 4.07605C1.99594 4.12629 1.88568 4.19995 1.79282 4.29282C1.69995 4.38568 1.62629 4.49594 1.57605 4.61728C1.52581 4.73862 1.49997 4.86867 1.5 5V11C1.50745 14.2062 2.41998 17.3451 4.1326 20.0556C5.84521 22.766 8.2883 24.9379 11.1807 26.3212C13.0746 30.265 16.4107 33.331 20.5 34.886V41H16.5C15.7046 41.0009 14.9421 41.3172 14.3796 41.8796C13.8172 42.4421 13.5009 43.2046 13.5 44V47C13.5 47.1313 13.5258 47.2614 13.5761 47.3827C13.6263 47.5041 13.7 47.6143 13.7928 47.7072C13.8857 47.8 13.9959 47.8737 14.1173 47.924C14.2386 47.9742 14.3687 48 14.5 48H38.5C38.6313 48 38.7614 47.9742 38.8827 47.924C39.0041 47.8737 39.1143 47.8 39.2072 47.7072C39.3 47.6143 39.3737 47.5041 39.424 47.3827C39.4742 47.2614 39.5 47.1313 39.5 47V44C39.4991 43.2046 39.1828 42.4421 38.6204 41.8796C38.0579 41.3172 37.2954 41.0009 36.5 41H32.5V34.886C36.5893 33.331 39.9254 30.265 41.8193 26.3212C44.7117 24.9379 47.1548 22.766 48.8674 20.0556C50.58 17.3451 51.4926 14.2062 51.5 11V5C51.5 4.86867 51.4742 4.73862 51.424 4.61728C51.3737 4.49594 51.3 4.38568 51.2072 4.29282C51.1143 4.19995 51.0041 4.12629 50.8827 4.07605C50.7614 4.02581 50.6313 3.99997 50.5 4ZM3.5 11V6H9.5V19C9.50517 20.4871 9.70639 21.967 10.0984 23.4015C8.07113 22.0287 6.41013 20.1811 5.26008 18.0197C4.11003 15.8582 3.5058 13.4484 3.5 11ZM36.5 43C36.7651 43.0003 37.0193 43.1057 37.2068 43.2932C37.3943 43.4807 37.4997 43.7349 37.5 44V46H15.5V44C15.5003 43.7349 15.6057 43.4807 15.7932 43.2932C15.9807 43.1057 16.2349 43.0003 16.5 43H36.5ZM22.5 41V35.505C25.1258 36.165 27.8742 36.165 30.5 35.505V41H22.5ZM41.5 19C41.5 22.9782 39.9196 26.7936 37.1066 29.6066C34.2936 32.4196 30.4782 34 26.5 34C22.5218 34 18.7064 32.4196 15.8934 29.6066C13.0804 26.7936 11.5 22.9782 11.5 19V3H41.5V19ZM49.5 11C49.4942 13.4484 48.89 15.8582 47.7399 18.0197C46.5899 20.1811 44.9289 22.0287 42.9016 23.4015C43.2936 21.967 43.4948 20.4871 43.5 19V6H49.5V11Z" fill="#222222"/>
<path d="M26.5 31C28.8734 31 31.1935 30.2962 33.1668 28.9776C35.1402 27.6591 36.6783 25.7849 37.5866 23.5922C38.4948 21.3995 38.7324 18.9867 38.2694 16.6589C37.8064 14.3312 36.6635 12.193 34.9853 10.5147C33.3071 8.83649 31.1689 7.6936 28.8411 7.23058C26.5133 6.76756 24.1005 7.0052 21.9078 7.91345C19.7151 8.8217 17.8409 10.3598 16.5224 12.3332C15.2038 14.3066 14.5 16.6266 14.5 19C14.5036 22.1815 15.769 25.2317 18.0186 27.4814C20.2683 29.731 23.3185 30.9965 26.5 31ZM26.5 9.00001C28.4778 9.00001 30.4112 9.58649 32.0557 10.6853C33.7002 11.7841 34.9819 13.3459 35.7388 15.1732C36.4957 17.0004 36.6937 19.0111 36.3079 20.9509C35.922 22.8907 34.9696 24.6725 33.5711 26.0711C32.1725 27.4696 30.3907 28.422 28.4509 28.8079C26.5111 29.1937 24.5004 28.9957 22.6732 28.2388C20.8459 27.4819 19.2841 26.2002 18.1853 24.5557C17.0865 22.9112 16.5 20.9778 16.5 19C16.503 16.3488 17.5576 13.807 19.4323 11.9323C21.307 10.0576 23.8488 9.00304 26.5 9.00001Z" fill="#222222"/>
<path d="M20.5 20C21.8256 20.0016 23.0965 20.5288 24.0338 21.4662C24.9712 22.4035 25.4984 23.6744 25.5 25C25.5 25.2652 25.6054 25.5196 25.7929 25.7071C25.9804 25.8946 26.2348 26 26.5 26C26.7652 26 27.0196 25.8946 27.2071 25.7071C27.3946 25.5196 27.5 25.2652 27.5 25C27.5016 23.6744 28.0288 22.4035 28.9662 21.4662C29.9035 20.5288 31.1744 20.0016 32.5 20C32.7652 20 33.0196 19.8946 33.2071 19.7071C33.3946 19.5196 33.5 19.2652 33.5 19C33.5 18.7348 33.3946 18.4804 33.2071 18.2929C33.0196 18.1054 32.7652 18 32.5 18C31.1744 17.9984 29.9035 17.4712 28.9662 16.5338C28.0288 15.5965 27.5016 14.3256 27.5 13C27.5 12.7348 27.3946 12.4804 27.2071 12.2929C27.0196 12.1054 26.7652 12 26.5 12C26.2348 12 25.9804 12.1054 25.7929 12.2929C25.6054 12.4804 25.5 12.7348 25.5 13C25.4984 14.3256 24.9712 15.5965 24.0338 16.5338C23.0965 17.4712 21.8256 17.9984 20.5 18C20.2348 18 19.9804 18.1054 19.7929 18.2929C19.6054 18.4804 19.5 18.7348 19.5 19C19.5 19.2652 19.6054 19.5196 19.7929 19.7071C19.9804 19.8946 20.2348 20 20.5 20ZM26.5 16.6025C27.0925 17.5846 27.9154 18.4075 28.8975 19C27.9154 19.5925 27.0925 20.4154 26.5 21.3975C25.9075 20.4154 25.0846 19.5925 24.1025 19C25.0846 18.4075 25.9075 17.5846 26.5 16.6025Z" fill="#222222"/>
</svg>
