<svg width="32" height="32" viewBox="0 0 32 32" fill="none" xmlns="http://www.w3.org/2000/svg">
<path opacity="0.45" d="M3.9013 17.464L8.01463 19.076C8.4493 19.2466 8.7853 19.6026 8.93197 20.0453L10.648 25.2693C11.0133 26.3826 12.3826 26.7813 13.288 26.0373L16.2586 23.5986C16.6346 23.2893 17.1813 23.3053 17.54 23.636L21.3413 27.1426C22.7213 28.416 24.9626 27.6866 25.3293 25.8453L29.3013 5.89729C29.5493 4.65062 28.3053 3.63329 27.132 4.12395L3.85997 13.8573C2.2493 14.5333 2.27463 16.8266 3.9013 17.464Z" fill="white"/>
<path d="M15.2772 21.6947L24.5972 9.47737C25.0346 8.90404 24.3159 8.16804 23.7332 8.59071L8.62256 19.5267C8.75323 19.68 8.86789 19.8494 8.93189 20.0454L10.6479 25.2694C10.8159 25.78 11.1986 26.132 11.6479 26.3C12.8519 26.6414 15.2772 21.6947 15.2772 21.6947Z" fill="white"/>
</svg>
